<?xml version="1.0" encoding="utf-8"?>
<!-- Generator: Adobe Illustrator 22.0.1, SVG Export Plug-In . SVG Version: 6.00 Build 0)  -->
<svg version="1.1" id="Layer_1" xmlns="http://www.w3.org/2000/svg" xmlns:xlink="http://www.w3.org/1999/xlink" x="0px" y="0px"
	 viewBox="0 0 1909.5 370.7" style="enable-background:new 0 0 1909.5 370.7;" xml:space="preserve">
<style type="text/css">
	.st0{fill:#0045FF;}
	.st1{fill:#D9D9DC;}
	.st2{fill:#1B1B1D;}
	.st3{fill:#333235;}
	.st4{fill:#E2E3E7;}
	.st5{fill:#2B292C;}
	.st6{fill:#CBCAC7;}
	.st7{fill:#4D4D4E;}
	.st8{fill:#E8E9ED;}
	.st9{fill:#767779;}
	.st10{fill:#A8A5A6;}
	.st11{fill:#A08E55;}
	.st12{fill:#D1BC75;}
	.st13{fill:#BEAB66;}
	.st14{fill:#252322;}
	.st15{fill:#ECEDF1;}
</style>
<g>
	<path class="st0" d="M699,258.2L657,53.3h13.4l21.9,109.4c5.5,27.1,9.4,49.9,12.2,75.1h1.2c2.4-26.4,7.3-48.3,12.8-75.7L740,53.3
		h12.2l22.2,106.1c5.2,24.9,10.3,48.6,13.4,78.4h0.9c4-31.3,8.2-53.8,12.8-76.9l21.3-107.6h13.1l-42.3,204.9H782l-24.3-119.8
		c-4.6-23.4-8.8-46.2-11.2-67.2h-0.6c-2.4,22.2-6.1,43.8-11.2,68.4l-24.3,118.6H699z"/>
	<path class="st0" d="M909.7,225.4c0,10.6,0,23.7,1.2,32.8h-12.2l-1.2-16.1h-0.9c-5.5,11.2-14.9,18.5-27.4,18.5
		c-17.9,0-32.2-15.2-32.2-40.1c0-35.3,26.4-51.7,59.6-52V163c0-24.9-4-41.6-25.2-41.6c-7.3,0-14.9,2.7-20.7,7l-3.6-10
		c4.9-4.3,16.1-8.5,27.1-8.5c19.8,0,35.6,11.6,35.6,46.5V225.4z M896.6,179.8c-11.2,0-45.9,0.9-45.9,39.8
		c0,21.9,10.6,29.5,20.4,29.5c12.5,0,22.2-10,24.9-27.7c0.6-3.3,0.6-6.7,0.6-9.4V179.8z"/>
	<path class="st0" d="M943.7,112.3l23.1,92.4c2.1,7.9,4.9,21,6.7,32.2h0.9c1.5-10.3,4.3-22.8,6.4-32.2l22.2-92.4h13.4l-37.7,145.9
		h-10.9l-37.1-145.9H943.7z"/>
	<path class="st0" d="M1042.2,179.8c0,58.7,20.4,68.7,36.8,68.7c9.4,0,17-2.4,21.9-5.8l3,10c-7,4.9-17.6,7.3-27.4,7.3
		c-31.9,0-47.7-30.1-47.7-74.2c0-46.2,16.7-76,43.5-76c28.9,0,36.8,35.6,36.8,61.4c0,2.7,0,5.5,0,8.5H1042.2z M1095.1,169.1
		c0.6-35.9-14.3-47.7-24.9-47.7c-17,0-26.1,24.3-27.7,47.7H1095.1z"/>
	<path class="st0" d="M1306.7,159.7c-1.5-31.6-3-63.8-2.1-87.9h-1.5c-4.9,23.4-10.3,47.4-18.2,76.3l-29.8,110h-6.7L1220,153.6
		c-8.5-31.9-14.9-57.2-19.5-81.8h-1.2c0.6,25.2-0.6,55.6-2.1,90.3l-4,96.1h-13.1l10.6-204.9h15.2l28.6,105.8
		c7.6,27.7,12.8,46.2,17.6,69.6h0.9c4.6-23.7,9.1-41,16.4-69.6l27.7-105.8h16.4l11.2,204.9h-13.4L1306.7,159.7z"/>
	<path class="st0" d="M1421.9,225.4c0,10.6,0,23.7,1.2,32.8h-12.2l-1.2-16.1h-0.9c-5.5,11.2-14.9,18.5-27.4,18.5
		c-17.9,0-32.2-15.2-32.2-40.1c0-35.3,26.4-51.7,59.6-52V163c0-24.9-4-41.6-25.2-41.6c-7.3,0-14.9,2.7-20.7,7l-3.6-10
		c4.9-4.3,16.1-8.5,27.1-8.5c19.8,0,35.6,11.6,35.6,46.5V225.4z M1408.8,179.8c-11.2,0-45.9,0.9-45.9,39.8
		c0,21.9,10.6,29.5,20.4,29.5c12.5,0,22.2-10,24.9-27.7c0.6-3.3,0.6-6.7,0.6-9.4V179.8z"/>
	<path class="st0" d="M1534.4,237.8c0,42.9-4.3,55.9-12.5,66c-7.6,9.7-20.4,15.2-33.4,15.2c-11.9,0-23.4-3.3-29.5-7.3l4.3-10.9
		c4.9,2.7,14.9,6.7,26.8,6.7c17.6,0,31.3-10.6,31.3-50.5v-18.5h-0.6c-4.9,12.8-15.8,19.8-28.9,19.8c-21.6,0-41.3-24.9-41.3-73
		c0-57.2,25.8-75.4,44.1-75.4c17.9,0,23.7,12.8,27.4,19.8h0.6l0.6-17.3h12.5c-0.3,7.9-1.2,19.5-1.2,45V237.8z M1521.3,160.6
		c0-3.6,0-7.3-0.9-10.6c-3-12.2-9.1-28.6-26.4-28.6c-18.5,0-29.8,24.9-29.8,62.6c0,43.8,14.3,62.6,30.1,62.6
		c8.5,0,20.1-3.6,25.8-27.4c1.2-5.5,1.2-10,1.2-14.3V160.6z"/>
	<path class="st0" d="M1585.4,74.9c0,7-3.3,11.2-10.3,11.2c-5.5,0-9.4-4.3-9.4-11.2c0-6.7,4-11.2,9.7-11.2
		C1582.1,63.6,1585.4,68.2,1585.4,74.9z M1569,258.2V112.3h13.1v145.9H1569z"/>
	<path class="st0" d="M1612.2,240.9c4.9,3.3,12.8,7.6,21.9,7.6c15.2,0,25.2-10.3,25.2-26.4c0-13.1-4-22.8-19.8-34
		c-16.1-11.6-29.5-22.5-29.5-41.3c0-22.2,17-36.8,35.6-36.8c10.9,0,18.8,4.3,23.7,7.9l-5.8,10.6c-5.5-4.3-11.2-7-18.8-7
		c-14,0-21.6,11.2-21.6,22.5c0,11.9,4,18.5,18.8,29.5c14,10,30.7,22.2,30.7,45c0,28.9-19.2,41.6-39.2,41.6c-9.7,0-20.1-3.3-26.1-8.5
		L1612.2,240.9z"/>
	<path class="st0" d="M1716.8,80.4v31.9h27.7v11.2h-27.7v99.4c0,20.4,6.7,25.8,15.5,25.8c3.6,0,6.7-0.3,8.8-0.9l1.5,10
		c-3.3,1.5-7,2.1-13.1,2.1c-7.9,0-14.9-2.4-19.5-8.5c-4.6-6.1-6.4-14.9-6.4-33.4v-94.5h-18.2v-11.2h18.2V88L1716.8,80.4z"/>
	<path class="st0" d="M1769.3,179.8c0,58.7,20.4,68.7,36.8,68.7c9.4,0,17-2.4,21.9-5.8l3,10c-7,4.9-17.6,7.3-27.4,7.3
		c-31.9,0-47.7-30.1-47.7-74.2c0-46.2,16.7-76,43.5-76c28.9,0,36.8,35.6,36.8,61.4c0,2.7,0,5.5,0,8.5H1769.3z M1822.2,169.1
		c0.6-35.9-14.3-47.7-24.9-47.7c-17,0-26.1,24.3-27.7,47.7H1822.2z"/>
	<path class="st0" d="M1862.7,146c0-10.9-0.9-24.6-1.2-33.7h12.5l0.6,23.7h0.6c3.6-12.8,16.4-26.1,31.6-26.1c0.9,0,1.8,0,2.7,0v14.3
		c-0.6,0-1.5,0-2.4,0c-18.8,0-29.8,18.5-31,36.5c-0.3,4.3-0.3,8.2-0.3,12.5v85.1h-13.1V146z"/>
</g>
<g>
	<path class="st1" d="M580,191.8c2.6,0,5.5,1.1,7.5-1.6c-3.6-5.3-8.7-8.1-15-9c-2.1-0.3-4.1-0.5-5.9-2c-7-5.5-15.2-7.5-23.7-9.8
		c-6.9-1.9-17.4,0.4-20-10.5c-0.6,0-1.2,0-1.8,0c-2.4-0.1-3.6-1.3-3.7-3.7c-5.8,0.1-10.3-5.6-16.5-3.7c-2.4,0-3.6-1.3-3.7-3.6
		c-1.8,0-3.7,0-5.5,0c-2.7,0.1-5.3,0.1-5.6-3.6c-1.2,0-2.4,0-3.7,0c-4.2,0-8.7,0.6-9.3-5.5c-1.2,0-2.4,0-3.6,0
		c-2.9,2.8-3.3,0.4-3.7-1.9c-1.3-2.1-3.5-1.8-5.5-1.8c-2.9,2.8-3.3,0.5-3.7-1.9c0,0,0,0,0,0c-4,0.2-7.8-0.8-11.7-1.7
		c-10.7-2.5-19.3-10.1-30.4-11.3c-18.6-1.9-37-4.5-55.3-9.1c-28.2-7.1-53.7-21-81.2-29.7c-17.4-5.5-34.7-11.3-52.1-16.8
		c-6.8-2.1-15.7-0.4-19.8-8.8c-1.2,0-2.4,0-3.7,0c-2.4-0.1-3.6-1.3-3.7-3.7c-0.6,0-1.2,0-1.8,0c-2.7-0.4-5.4-0.6-8.1-1.3
		c-12.4-3.1-23.7-9.2-36-12.7c-29-8.4-58.1-14.8-88.2-7.1C56,33,47.1,30.8,38.6,33.7c-14.5,4.9-14.8,4.6-14.9-10.5
		c0-0.9,0-1.8,0-2.8c-9.2,10.2-9.1,29.9-0.1,39.9c5.4,6,12.7,10.4,15.7,18.7c3.3,8.9,5.2,17.7,3.6,27.3c-0.8,4.8-1,9.8-0.4,14.5
		c0.5,4,1.5,8.9,7.8,7.8c-0.8-6.1-1.7-12.1-2.5-18.2c-1.9-15,2.7-27,15.7-35.6c15.3-10.2,31.7-10.1,48.7-6.1
		c5.9-4.1,15.4-0.9,17.8,6.1c0.7,0.4,1.4,0.8,2.1,1.2c0.7-0.9,1.5-2.6,2-2.4c2.3,0.5,1.8,2.6,2,4.3c1.5,0.9,3.1,1.8,4.6,2.7
		c4.9-1.7,9.4,0.4,13,2.8c7.4,5,14.1,11,21.1,16.5c1.5,0.2,3.6-0.2,4.4,0.7c8.9,9.2,16.9,19,21.5,31.3c4.2,11.5-0.6,23-0.1,34.5
		c1.3,0.5,2.5,1.1,3.8,1.6c29.5,3.7,58.9,7.4,88.4,11.1c1.2,0,2.5-0.1,3.7-0.1c5.1-2.2,10.3-4.2,14.8,1.2c4.3,0,8.5,0,12.8,0
		c0.2-1.2,0.6-2.4,2-2.3c1.4,0.1,1.7,1.3,1.8,2.5c3,0.1,6.1,0.2,9.1,0.2c0.7-3.9,3.7-3.3,6.4-3.4c19.9-1.1,40,1.2,59.9-1.9
		c12.1-1.9,24.5-0.4,36.4-2.3c18.5-2.9,36.7-7.8,55.1,0.3c2.6,1.2,7.1,2.3,8.7,1c7.2-6,13.9-3.1,21.3-1c11.9,3.2,24.4,4.3,36,8.2
		C567.4,183.7,575,185.8,580,191.8z M206.1,160.7c-0.3-2.7,0.6-5.1,1.8-7.4c0.3-7-1.1-14.1,2.8-20.7c2.1-3.5,0-7.1-2.6-9
		c-14-10.7-21.5-27-34.2-38.9c-9-8.4-6.8-14.1,5.1-17.8c12.8-4,24.2,2.8,36,6.2c12.9,3.7,25.7,7.6,38.2,12.2
		c10.8,3.9,22.8,5,31.7,13.4c1.9,1.8,4.6,3.6,3.6,6.9c-1,3.1-3.4,5.4-6.8,5.3c-6.8-0.3-10.1,4.6-14.1,8.8c-2.1,2.2-2,3.1,0.3,4.9
		c9.1,6.7,18.4,12.2,30,14.6c9.2,1.9,17.7-2,26.3-0.4c19.4,3.7,39.1-0.3,58.5,3.5c11.5,2.2,23.8-2.2,35,3.9c2.1,1.1,5.2,1.4,5.3,4.3
		c0.2,3.1-3,3.5-5,4.7c-15.5,9-33.4,8.9-50.2,12.7c-17.4,3.9-35.4,1.9-53.1,2.1c-13.4,0.2-26.7-0.5-40,1.8
		c-14,2.4-26.6-5.2-40.2-6.3c-9.5-0.7-19.3,1-28.4-2.9C204.8,161.9,204.8,161.3,206.1,160.7z"/>
	<path class="st2" d="M145.4,369.6c15.9,1.5,31.9,1.8,47.8-0.7c0-1.6,0.4-2.9,1.8-3.7c0-1.2,0-2.4,0-3.6c-13.4,0-26.8,0-40.2,0
		c3.9-1.9,7.8-1.9,11.7-1.9c12.1,0.1,24.1-0.8,35.8-3.7c-3.7-4.5-6.8-8.8-14.2-4.6c-3.6,2.1-8.8-0.9-12.5-3.8
		c-1-0.8-1.1-2.9-0.1-3.2c5.5-1.7,5.4-12.4,11.3-9.8c8.9,4,13.4,0.9,19.4-4.9c6.1-5.9,6.2-12.6-1.6-16.6c-1.6-0.8-3.5-1.2-5.1-2
		c-3-1.6-2.8-4.4-2.8-7.2c0.1-2.3,0.5-4.9,3.2-4.6c6.6,0.6,14.8-4.1,18.9,5.8c1.6,3.8,5.9,4.2,10,5.2c8,1.9,9.4-7.5,15.7-7.7
		c0-0.6,0.1-1.2,0.1-1.8c-0.4-1.1-0.5-3.1-1.2-3.3c-8-2.5-16-7.6-23.1-8.6c-13.3-1.8-27.8-4.1-41.4,1.8c-3,1.3-7.5,1.2-10.5-0.1
		c-15.3-6.3-31.8-0.6-47.4-5.4c-5.3-1.6-9.4-1.1-10.6-7.2c-11.1-2.9-22.2-5.8-33.3-8.7c-0.4,1.1-0.6,2.8-1.4,3.2
		c-9.1,4.7-13.6,13.3-19.7,21c-5.9,7.4-11.5,16.5-21.4,20.3c-1.6,5.6-4.6,9.1-11.1,7.4c-2.4-0.2-4.7-0.3-7.1-0.5l-0.6,0.6
		c-0.2,2.7,0.7,5,2.5,7c5.2,0,9,3.5,13.5,5.2c5.8,2.2,11.9,6,18.1,3.9c7-2.4,11-0.6,14.1,5.5c6.2-4.7,12.2,0.4,18.4,0.4
		c12-2.4,23.7,1.9,35.5,2.4c2.3,0.1,3.1,2.6,3.2,4.9c0.6,7.6-5.5,4.8-9.1,5.9c0,1.7,0,3.4-0.1,5.1c3.9-0.5,7.4,1.3,11.1,2.1
		c4.9-14.2,9.3-15,21-3.5c-1.9,2-3.8,1.5-5.7,0.2c-8.2-5.8-6.9-0.1-6.2,5c1.2,0,2.4,0.1,3.6,0.1C139.4,366,144.7,362.6,145.4,369.6z
		"/>
	<path class="st3" d="M292.7,179.1c-29.5-3.7-58.9-7.4-88.4-11.1c0.3,2.8,1.1,5.6,3.6,6.9c2.4,1.3,4.3,2.4,3.4,5.4
		c-1,3.1-3.8,2.2-6.1,2.5c-6.4,0.9-13.2-2.1-19.3,1.8c1.1,2.9,5.6,0.5,6.5,4.5c-4.3,2.3-11.3,0.1-13.2,7.1
		c14.3,0.8,27.7-4.2,42.3-1.3c8.3,1.7,17.8-1.8,26.6,2.4c2,0.9,5.3,1,7-1c3.4-4,8-2.2,9.9-0.4c6.9,6.5,15.1,5,23.1,5.3
		c2.9,0.1,5.9,0.6,6.1,4.2c0.2,3.7-3.1,2.9-5.4,3.2c-1.9,0.3-5.9,1.6-3.9,2.6c5.2,2.7,5.1,11.5,13.1,10.3c4.6-0.7,8.9,1.6,13.3,2.3
		c10.1,1.8,20.7,3.6,30.8,2.4c11.9-1.4,23.5-0.4,35.4-1.2c-3.4,6.1-8,7.5-14.3,7.7c-10.6,0.3-21.2,2.3-31.7,3.5
		c-5,0.6-5.7,3.8-5.2,7.9c32.9-4.5,65-12.5,97.3-19.8c5.4-1.2,11.2-2.9,16.4-1.2c9.9,3.3,8.7,12.3,7.4,19.8
		c-2.2,13.4-13,18.9-22.1,11.9c-2.5,0.4-5,0.8-7.5,1.2c-9.1,2.2-18.3,4.3-27.4,6.5c2.6,3.1-2.7,4-1.8,6.6
		c29.4-1.7,58.7-4.3,87.6-9.6c18.2-3.3,24.9-13.1,26.9-31.6c1.5-13.3-0.5-27,5-39.8c0.3-2.1-0.5-3.7-2.2-4.9
		c-2.5,2.5-5.8,0.7-8.6,1.7c-4.6,5.2-4,12.6-7.2,18c-5.2,9-27.4,14.6-37.5,11c-1.3-0.4-2.7-1-2.4-2.2c1.5-6.9-3.7-5.2-6.8-4.9
		c-10.3,0.9-20.8,3.1-31,1.4c-6.9-1.1-17.4,3.1-19.3-9.4c-0.1-0.7-2-1.2-3-1.7c-9.5-4.8-19.7-5.6-30.1-4.6
		c-17.9,1.7-35.7,3.4-53.6,4.9c-4.4,0.4-8.4-0.6-9.2-6.2c2.8-1.1,7.6,2.1,7.6-2.7c0.1-5-3.9-3-6.8-2.4
		C290.9,187.8,291.1,183.9,292.7,179.1z M309.6,215.9c-4.7,0-9.2,0.4-9.5-5.9c-0.3-5.7,3.7-4.8,7.3-5.3c6.3-0.9,9.4,3.4,9.8,7.9
		C317.5,217,312.3,215.5,309.6,215.9z M282.1,199.1c0.7-2.6,0.1-5,0-7.5c-0.3-3.5,5.2-4.2,5.9-0.7
		C288.8,194.9,285.5,197.1,282.1,199.1z M365.1,199.5c0.7,0.4,2.4,0.2,2,2c-0.3,1.3-1.7,1.5-2.9,1.4c-1.1-0.2-2.7-0.2-2.3-2
		C362.3,199.6,363.6,199.5,365.1,199.5z M312.6,199.4c0.1,0.4,0.3,0.8,0.4,1.2c-0.8,0.2-1.6,0.6-2.4,0.5c-1-0.2-3,1.1-2.7-1.2
		C308,199.5,311,199.6,312.6,199.4z M238.5,187.5c0.5-0.2,0.9-0.3,1.2-0.4c-0.1,0.2-0.1,0.5-0.2,0.7
		C239.3,187.8,239,187.7,238.5,187.5z"/>
	<path class="st4" d="M23.7,20.4c0,0.9,0,1.8,0,2.8c0.1,15.1,0.4,15.5,14.9,10.5c8.5-2.9,17.3-0.7,25.9-2.8
		c30.1-7.6,59.2-1.2,88.2,7.1c12.3,3.6,23.6,9.7,36,12.7c2.6,0.6,5.4,0.9,8.1,1.3c-0.7-4.5-11.1-6-3.8-13.1c1.4-1.4,4.6-3.5,2.6-6
		c-2-2.4-4.4,0.3-6.6,1c-9,3-17.8-1.3-25.5-3.4c-11.2-3-19.3-14.8-32.5-15c-1.5,0-3-0.8-4.3-1.4c-2.1-1-5.2-1.9-4.4-5
		c0.9-3.4,4.3-3.8,6.8-2.8c6.2,2.3,12.7,1.8,18.9,2.6c13.6,1.8,26.5,6.3,39.9,9c12.9,2.6,26.2,4.8,38.5,10.3
		c3.1,1.2,6.1,2.5,9.2,3.7c6,0.5,12.2,0.2,16.6,5.5c2.7,0.4,5.3,0.9,8,1.1c8.7,0.7,16,7.4,25.2,6.2c0-5.2-6-2.4-7.5-5.6
		c-33.4-9.4-66.1-20.9-100.3-27.7C146.2,5.1,115-1.8,82.7,0.4c-0.2,1.6-0.8,2.8-2.5,3.4c-16.5,5.8-34.2,6.6-51,11.2c0,0,0,0,0,0
		c0,2.6-1.3,3.8-3.9,3.7C24.8,19.3,24.2,19.9,23.7,20.4z"/>
	<path class="st5" d="M140.7,80.6c-1.5-0.9-3.1-1.8-4.6-2.7c-1.7,0.2-3.1-0.3-4-1.8c-0.7-0.4-1.4-0.8-2.1-1.2
		c-6-2-12.3-2.8-17.8-6.1c-17-4-33.3-4.1-48.7,6.1c-13,8.6-17.7,20.6-15.7,35.6c0.8,6.1,1.7,12.1,2.5,18.2c0,0,0,0.1,0,0.1
		c1.4,1.2,1.2,2.3,0,3.5c-0.1,2.1-0.1,4.1-0.2,6.2c2.6,0.5,4.7,1.3,3.6,4.7c-1.1,3.5-0.6,6.5,3.1,8.4c2.1,0.7,4.2,1.4,6.3,2.1
		c-0.2-8.2,2-16.7-3.6-24.3c-1-1.3,1.4-2.1,3-2c0-0.5,0-0.9,0-1.4c-0.2-1.3-0.3-2.6-0.5-3.9c-0.9-0.9-1.4-2.1-0.2-3
		c2.1-1.6,3.9,0.1,5.7,0.9c1.2-0.2,2.1,0,2.6,1.2c0.5,0.3,1,0.6,1.5,0.9c2.5-0.1,5-0.1,7.5-0.2c0.2-2.5,1.7-3.5,4-3.7
		c-1.4-1-2.7-2.1-4.1-3.1c-1.7-0.3-3.5-0.6-5.2-0.9c-1.3,0.2-2.5,0.3-3.8,0.5c-0.8,1.7-1.6,1.3-2.4,0c-2.9-0.4-6.4,0.7-8.6-1.9
		c-1.6-1.9-6.5-1.2-5.2-5.1c1.1-3.5,4.5-2.1,7.2-1.8c2.7-2.5,5.5-5.1,8.2-7.6c2.3-6.4,7.2-8.6,13.6-8.3c4.4-4.2,5.8-3.5,7.8,3.8
		c0.5,0.8,0.9,1.5,1.4,2.3c0.3,3.7-2.9,4.3-5.1,5.8c-0.2,0.5-0.3,1-0.1,1.6c0.6,0.2,1.2,0.3,1.9,0.5c6.8,0.9,8.5-3.8,10.3-8.8
		c3.8-10.7,4.4-10.9,14.8-5c-10.1,4.2-2.6,10.1-2,15.5c1.4,4.3,4.9,3.7,8.2,3.8c0.4-0.2,0.7-0.5,1.1-0.6c1.1-3.8-1.7-10,6-9.6
		c1.7,0.6,4.5,0.9,4.9,1.9c2.8,7.9,11.7,10.2,15.2,17.3c0.5-0.7,1.6-1.6,1.4-2.1c-1.5-4.2-1.8-9.2,2.3-10.6
		c3.9-1.3,7.6,0.3,10.9,5.7c3.6,5.8,8.4,15.6,19.3,10.5c-0.7-3.8-3.1-6.5-5.2-9.5C166.4,99.2,153.5,89.8,140.7,80.6z"/>
	<path class="st6" d="M497.1,184.9c2.8-1,6.1,0.8,8.6-1.7c3.6-0.6,7.4-1.1,10.8,0.4c3,1.3,9-0.6,8,6.1c18.5,1,37.1-1.4,55.4,2.2
		c-5-6.1-12.5-8.1-19.2-10.3c-11.6-3.8-24.2-4.9-36-8.2c-7.5-2-14.2-5-21.3,1c-1.6,1.3-6.1,0.2-8.7-1c-18.4-8.1-36.6-3.2-55.1-0.3
		c-12,1.8-24.3,0.4-36.4,2.3c-19.9,3.1-39.9,0.9-59.9,1.9c-2.7,0.1-5.8-0.5-6.4,3.4c5.5,0.3,11,0.7,16.5,0.8
		c32.3,0.4,64.5-2.2,96.7-2.1C465.7,179.3,481.2,184.4,497.1,184.9z"/>
	<path class="st7" d="M235.4,362.3c32.8-7,61.6-22.3,88.9-41.3c13.8-9.6,24.5-22.5,37-33.4c3.9-3.4,4.6-8.5,7.3-12.5
		c-3.3,0.3-6.4-2-9.7-0.4c-8.8,4.8-13.8,13.9-22.2,19.4c-4.9,3.2-5.5,1.3-5.8-2.9c-1.1,0.7-1.7,1.7-1.4,3.1c0,2.8,0.8,6.2-3.7,6.4
		l0,0c0.3,2.5-0.7,4.8-2.5,6.1c-1.2,0.8-2.4-1.1-3-2.4c-3.2,0.8-3.4,6.6-8.2,4.9c-2.7,1.7-5.5,3.3-7.2,6c1,0.4,1.9,0.8,2.9,1.2
		c-1.7,1.8-3.7,2.6-6.2,2.4c-0.6,0-1.1,0-1.7-0.1c-3.6,7.3-10.3,9.3-17.6,10.3c-2.6,1.1-5.3,2.3-7.9,3.4c-0.2,0.8-0.5,1.6-0.7,2.4
		c0.3,3.5,2.5,7.2-1.5,10.1c-1.2,2.4-3.1,2.8-5.4,1.7l0.1,0c0.3,1.6-0.7,1.8-1.9,2c-4.9-2.4-9.5,5.5-14.2,0.9
		c-5.6-5.4-7.1,0.3-9,3.2c-0.7,1.1-1,2.7-2.4,3c-6.7,1.5-13.5,2.7-20.3,4.1c3,2.8,6.2,1.6,9.5,0.7
		C231.2,359.7,234.1,358.4,235.4,362.3z M281.4,336.3c0.6,0.4,1.2,0.7,1.3,1c0.1,0.4-0.3,1.2-0.6,1.3c-0.9,0.3-1.6-0.2-1.5-1.2
		C280.6,337,281.1,336.6,281.4,336.3z"/>
	<path class="st1" d="M277.8,39c1.5,3.2,7.5,0.4,7.5,5.6c3.1,0.6,6.1,1.3,9.2,1.9c2.1,0,4.2-0.4,5.6,1.8c3.7,0.6,7.3,1.3,11,1.9
		c2.5-0.1,3.7,1.2,3.7,3.6c1.9,2.6,4.8,1.6,7.4,1.9c1.5,0,2.9,0.3,3.7,1.8c3.1,0.6,6.1,1.2,9.2,1.9c4.7,1.8,10.9,0.8,13,7.3
		c3.9-0.6,7.3,1.3,11,1.9c4.3,0.6,9.2-0.1,11.1,5.5c1.2,0,2.4,0,3.6,0c2.7-0.1,5.3-0.1,5.6,3.6c21.7,6.3,41.3,17.7,62.7,24.6
		c10.7,3.5,19.2,12.3,31.2,12.3c1.5,0,2.9,0.3,3.7,1.8c3.2-0.3,4.8,2.6,7.4,3.7c3.1-0.5,6.6,1.3,9.1-1.8
		C452,98.3,411.8,75.5,367.6,62.2c-24.5-7.4-47.8-18.5-73.4-22.4C288.7,38.9,283.3,39.2,277.8,39z"/>
	<path class="st8" d="M493.4,118.4c-2.6,3.1-6.1,1.3-9.1,1.8c0.1,1.9,0.6,3.9,2.4,4.6c4.4,1.7,8.2,4.2,5.9,9.2
		c-2.4,5.4-6.9,0.8-10.5,0.8c-1.4,0-3-0.7-4.3-1.4c-7.1-4.1-16.8-0.1-22.9-7.5c-0.7-0.9-2.8,0.3-3.8,1.7c1.3,2.4,5.9,1.5,5.5,5.5
		c0,0,0,0,0,0c1.5,0,2.9,0.4,3.7,1.9c2,0.1,4.2-0.3,5.5,1.8c1.5,0,2.9,0.4,3.7,1.9c1.2,0,2.4,0,3.6,0c3.4,1.2,8.1,0.4,9.3,5.5
		c1.2,0,2.4,0,3.7,0c2.7-0.1,5.4-0.1,5.6,3.6c1.8,0,3.7,0,5.5,0c2.4,0,3.6,1.3,3.7,3.6c6.2-1.9,10.7,3.9,16.5,3.7
		c2.4,0,3.6,1.3,3.7,3.7c0.6,0,1.2,0,1.8,0c4.9-0.1,9.4,0.3,14.1,2.7c4.7,2.4,10.4,3.7,16.1,2.6c3-0.6,6.2-2.4,3.4-5.4
		c-3.7-3.8-6.3-8.4-11.2-11.7c-8.6-5.6-18.6-7.8-27-13.1c-5.7-3.6-13.5-3.7-17.4-10.2C500.2,119.5,496.8,118.9,493.4,118.4z"/>
	<path class="st4" d="M500.8,123.8c3.9,6.5,11.7,6.6,17.4,10.2c8.4,5.3,18.4,7.5,27,13.1c4.9,3.2,7.5,7.8,11.2,11.7
		c2.9,3-0.4,4.8-3.4,5.4c-5.6,1-11.4-0.2-16.1-2.6c-4.7-2.4-9.2-2.8-14.1-2.7c2.6,10.9,13.2,8.6,20,10.5c8.5,2.3,16.7,4.3,23.7,9.8
		c1.8,1.5,3.9,1.7,5.9,2c6.3,0.9,11.4,3.7,15,9c11.7-12.6,10.1-24-4.7-30.9c-25.2-11.7-50.5-22.9-75.8-34.2
		C505.1,124.3,502.9,124.2,500.8,123.8z"/>
	<path class="st9" d="M6.9,285.6C-2.4,300-2.3,315,7.1,326.6c3.9-5.5-3.2-9.6-1.9-14.7c-1.7-1.3-2.1-2.9-0.9-4.7
		c0.2-0.2,1,0,1.6,0.1c-0.1,1.5-0.3,2.9-0.4,4.4c2.7,1.1,5.9,4.4,7.1-1.6c-0.6-0.6-1.3-1.2-1.9-1.7c-0.6-0.6-1.5-1.2-1.8-2
		c-0.8-1.9-4.7-2.8-2-5.9c0.5-0.6,1.7-1,2.3-0.8c2.6,1,1.6,3.5,1.9,5.5c0.2,0.9,0,1.8,0,2.7c0.6,0.7,1.1,1.3,1.7,1.9
		c0.8-0.5,1.7-0.8,2.3-1.4c13.9-14.5,21-34,34.8-48.6c0.5-0.6-0.2-2.3-0.3-3.5c0,0,0,0.2,0,0.2c-0.6-0.8-1.3-1.7-1.9-2.5
		c-3.8-1.2-7-3.2-9.3-6.7c-0.6,0.1-1.2,0.1-1.7,0.2c-2.7,4.7-5,9.7-8.3,14c-4.5,5.9-7.7,12.9-14.2,17.1l0.2,0c0.2,2,0.6,4-1.5,5.3
		c-0.7,1.9-1.4,3.9-2.1,5.8c1.3,0.7,1.5,1.2-0.1,1.7C6.5,291.4,7.6,287.9,6.9,285.6z"/>
	<path class="st7" d="M5.2,311.8C3.8,317,11,321,7.1,326.6c1.2,1.3,2.4,2.6,3.6,3.9c1.7-4.2,6.2,1.7,8-2.3c-1.8-2-2.7-4.3-2.5-7
		c-0.2-0.4-0.5-0.8-0.7-1.2c0.4,0.2,0.8,0.4,1.2,0.6c2.4,0.2,4.7,0.3,7.1,0.5c-0.3-4.1,0.4-7.5,4.5-10c3.2-2,5-5.8,7.2-9.1
		c7.9-11.8,10.8-27,23.8-35.3c0.6-0.4-0.2-2.9-0.4-4.4c-1.9-2.5-3.8-5.1-5.7-7.6c-1.2,0.5-2.4,1.1-3.6,1.6c0.1,1.2,0.8,2.9,0.3,3.5
		C36,274.3,29,293.8,15,308.3c-0.6,0.6-1.5,1-2.3,1.4l-0.2,0.2c-1.2,5.9-4.3,2.7-7.1,1.6L5.2,311.8z"/>
	<path class="st5" d="M18.6,328.2c-1.8,3.9-6.3-1.9-8,2.3c6.8,8.9,17.1,12.5,26.7,17c7.9-0.8,15.3,2.4,23.1,3.1
		c4-0.3,7.8-0.5,7.6,5.3c3.6,0.4,7.2-1.6,10.7,0.3c5.9-0.8,11.5-0.6,15,5.2c6.1-1.5,12.3-3.2,18.4,0.1c0-1.7,0-3.4,0.1-5.1
		c-2.6-1.3-5.2-2.5-7.8-3.8c-2.3,0.5-4.6,1-6.9,1.5c-1.9,0.1-3.5-0.5-4.9-1.8c-8.3,0-16-2.9-23.8-4.9c-2.5-0.6-4.8-1.3-4.5-4.5
		c-3.1-6.1-7.1-7.8-14.1-5.4c-6.1,2.1-12.2-1.7-18.1-3.9C27.6,331.7,23.8,328.2,18.6,328.2z"/>
	<path class="st7" d="M56.7,151.5c-3.6-1.8-4.1-4.9-3.1-8.4c1-3.4-1-4.2-3.6-4.7c-0.3,4.8-0.8,9.7-0.9,14.5
		c-0.3,12.5-1.5,24.8-9.5,35.2c0.6,0.1,1.2,0.2,1.8,0.3c1.4-0.1,2.8-0.2,4.2-0.4c0,0,0,0.1,0,0.1c0.7-0.6,1.3-1.2,2-1.8
		c1.2,0,2.3,0,3.5,0c-0.8-5.4,7.3-8.5,3.7-14.6C51.2,164.7,52.9,158,56.7,151.5z"/>
	<path class="st10" d="M14.2,278.5c6.5-4.2,9.7-11.2,14.2-17.1c3.3-4.3,5.6-9.3,8.3-14c-1.3-1.9-2.5-3.8-3.8-5.8c-0.7,0-1.4,0-2,0
		c-5.2,9.5-13.6,17.1-16.4,28.1C15.9,272.7,14,275.6,14.2,278.5z"/>
	<path class="st1" d="M29.2,15.1c16.8-4.6,34.4-5.4,51-11.2c1.7-0.6,2.2-1.9,2.5-3.4c-15.9-1-31,2.4-45.4,9
		C34.3,10.8,30.8,11.6,29.2,15.1z"/>
	<path class="st11" d="M39.6,188.3c-5.5,4.4-4,13.1-10.3,17.1c0.1,0.4,0.1,0.8,0.2,1.2c1.8,3.1,5.4,5.3,4.9,9.5
		c0.7,1.2,1.4,2.4,2.1,3.6c3.2,1.2,5.9,3.7,9.7,3.4c1.9-4.5-1.1-8.3-3.5-10.3c-9.2-8-4.7-15.9-1.2-24.1
		C40.9,188.5,40.3,188.4,39.6,188.3z"/>
	<path class="st12" d="M36.6,219.7c-0.7-1.2-1.4-2.4-2.1-3.6c-4.2,0.6-11.2-3.6-10.7,5.9c0,0.3-2.1,0.8-3.2,1.2
		c1.7,7.1,7.9,11.7,10.2,18.4c0.7,0,1.4,0,2,0c-0.1-2.4-0.1-4.9-0.2-7.3C28.6,228,32.5,223.8,36.6,219.7z"/>
	<path class="st7" d="M112.1,361.5c-6.1-3.2-12.3-1.5-18.4-0.1c-0.6,0.6-1.2,1.1-1.8,1.7c11.5,3,23.2,4.9,35.2,5.2
		c-0.2-2.5-2.9-3-3.9-4.8C119.5,362.8,116,361,112.1,361.5z"/>
	<path class="st7" d="M60.4,350.6c-7.7-0.7-15.1-3.9-23.1-3.1c13.1,7,27.3,10.7,41.8,13.2c-0.1-1.5-0.2-3-0.4-4.5
		c-3.5-1.9-7.2,0.1-10.7-0.3C64.6,355.4,61.3,354.7,60.4,350.6z"/>
	<path class="st5" d="M123.2,363.6c1.1,1.8,3.8,2.2,3.9,4.8c1,0.1,2,0.2,3.1,0.2c0.7-1.1,1.4-2.2,2.2-3.3c-0.7-5.1-2-10.9,6.2-5
		c1.9,1.3,3.8,1.8,5.7-0.2C132.5,348.6,128,349.3,123.2,363.6z"/>
	<path class="st3" d="M235.4,362.3c-1.4-3.9-4.3-2.6-6.9-1.9c-3.3,0.9-6.5,2.1-9.5-0.7c-2.5,0-5-0.1-7.5-0.1c-2.6,2.1-6.9,3-5.3,8
		c4.3,0.1,8.5-0.4,12.5-1.8c0.9-2.3,2-3,3.8-0.8C226.9,364.1,231.2,363.2,235.4,362.3z"/>
	<path class="st13" d="M20.6,223.2c1.1-0.4,3.2-0.9,3.2-1.2c-0.5-9.5,6.4-5.3,10.7-5.9c0.5-4.3-3.1-6.4-4.9-9.5
		c-1.4,1.3-2.7,2.6-4.1,3.8c-0.7,0-1.4,0-2-0.1c-0.6,0-1.1,0.1-1.5,0.6c-0.4,1-0.9,2-1.3,3C19.2,217,19.6,220.1,20.6,223.2z"/>
	<path class="st14" d="M206.3,367.6c-1.6-4.9,2.8-5.8,5.3-8l-0.1,0c-5.5,0.4-11.3-1.2-16.6,1.9c0,1.2,0,2.4,0,3.6
		c1.4,0.8,1.9,2,1.9,3.5C200.1,368.9,203.3,369.1,206.3,367.6z"/>
	<path class="st10" d="M524.5,189.7c0.9-6.7-5-4.7-8-6.1c-3.3-1.5-7.1-0.9-10.8-0.4c1.8,1.1,2.5,2.8,2.2,4.9
		C513.5,188.6,518.9,190.6,524.5,189.7z"/>
	<path class="st3" d="M14.2,278.5c-0.2-2.9,1.7-5.8,0.3-8.8c-4.6,4.3-5.4,10.5-7.6,15.9c0.7,2.3-0.4,5.8,3.9,5.7
		c0-0.6,0-1.1,0.1-1.7c0.7-1.9,1.4-3.9,2.1-5.8c-0.4-2-0.9-4.1,1.5-5.3L14.2,278.5z"/>
	<path class="st5" d="M388.4,269.1c-0.9-2.6,4.5-3.5,1.8-6.6c-7.4,2-14.7,3.9-22.1,5.9c2.5,1,5,1.9,7.5,2.9c0.7-0.3,1.3-0.6,2-0.9
		c2.2-1.7,4.7-1,7.1-1C385.9,269.3,387.2,269.2,388.4,269.1z"/>
	<path class="st3" d="M375.7,271.2c-2.5-1-5-1.9-7.5-2.9c-4.4,0.7-9,0.6-13.2,2.6c2.2,0.3,3.9,1,3.9,3.6c3.3-1.6,6.4,0.8,9.7,0.5
		C370.9,273.8,373.3,272.5,375.7,271.2z"/>
	<path class="st3" d="M78.7,356.2c0.1,1.5,0.2,3,0.4,4.5c1.2,0.2,2.4,0.4,3.6,0.6c2.5-2.4,4.4-2.2,5.6,1.3c1.2,0.2,2.4,0.4,3.6,0.5
		c0.6-0.6,1.2-1.1,1.8-1.7C90.2,355.6,84.6,355.3,78.7,356.2z"/>
	<path class="st3" d="M145.4,369.6c-0.7-7-6-3.6-9.5-4.2c0.1,1.2,0.2,2.5,0.3,3.7C139.3,370,142.3,370.5,145.4,369.6z"/>
	<path class="st7" d="M136.3,369.1c-0.1-1.2-0.2-2.5-0.3-3.7c-1.2,0-2.4-0.1-3.6-0.1c-0.7,1.1-1.4,2.2-2.2,3.3
		C132.1,369.6,134.2,369.9,136.3,369.1z"/>
	<path class="st7" d="M88.3,362.6c-1.2-3.5-3.1-3.7-5.6-1.3C84.4,362.7,86.2,363.1,88.3,362.6z"/>
	<path class="st11" d="M23.4,210.3c0.7,0,1.4,0,2,0.1c0.6-1.6,1.1-3.3,1.7-4.9C22.9,204.8,22.4,207,23.4,210.3z"/>
	<path class="st3" d="M384.7,269.3c-2.4,0-4.9-0.7-7.1,1C380,270,382.3,269.7,384.7,269.3z"/>
	<path class="st1" d="M25.3,18.8c2.5,0.1,3.9-1.1,3.9-3.7C26.7,15.1,25.7,16.6,25.3,18.8z"/>
	<path class="st12" d="M27.1,205.5c-0.6,1.6-1.1,3.3-1.7,4.9c1.4-1.3,2.7-2.6,4.1-3.8c-0.1-0.4-0.1-0.8-0.2-1.2
		C28.6,205.4,27.9,205.4,27.1,205.5z"/>
	<path class="st7" d="M222.6,365c-1.8-2.2-2.9-1.5-3.8,0.8C220.3,366.4,221.5,365.8,222.6,365z"/>
	<path class="st3" d="M196.9,368.6c0-1.5-0.4-2.8-1.9-3.5c-1.5,0.8-1.9,2.2-1.8,3.7C194.4,368.8,195.7,368.7,196.9,368.6z"/>
	<path class="st12" d="M20.6,213.9c0.4-1,0.9-2,1.3-3c-0.9,0.4-1.8,0.8-2.7,1.3C19.6,212.7,20.1,213.3,20.6,213.9z"/>
	<path class="st1" d="M50.2,132.3c1.2-1.2,1.4-2.3,0-3.5C50.2,129.9,50.2,131.1,50.2,132.3z"/>
	<path class="st14" d="M41.5,188.6c-3.5,8.2-8,16.1,1.2,24.1c2.4,2,5.4,5.9,3.5,10.3c3.9,0.4,5.9,3.9,9,5.6c3,1.9,6.1,3.8,9.1,5.7
		c1.8,0.7,3.6,1.5,5.3,2.2c1.9-0.2,4.1-1.4,5.4,1c0.7,1.3-0.4,2-1.6,2.3c-0.2,0.2-0.5,0.3-0.6,0.6c-0.1,0.1,0.1,0.6,0.2,0.6
		c2,0.2,4,0.3,5.9,0.4c4.6-3.1,9.5-2.5,14.5-1.2c13,3.1,26,6.2,39.3,7.5c3.7,0.4,7.3,1.1,9,5c1.7,0.1,3.5,0.3,5.2,0.4
		c9.5-4.8,19.5-2.1,29.4-1.8c12.9,0.3,26-1.8,38.8,1.2c0.6,0.1,1.1,0.2,1.7,0.4c0.7,0,1.4,0,2.1,0c5.9-3.6,12.4-1.4,18.6-1.5
		c1.9,0.1,4-0.5,5.5,1.4c1.2-0.1,2.3-0.2,3.5-0.4c0.2-1.2,0.6-2.4,0.5-3.6c-0.3-2.9-7.3,0-4.8-5.5c2.3-5,6.8-2.9,10.5-3.3
		c1.5-0.2,3.1,0,4.6,0c4,0,8.2,0.3,10.7-3.7c0.8-1.3,0.9-3.3-0.4-4.2c-3.9-2.9-7.5-0.4-11.2,1c-3,1.2-8.6,2.9-8.6-0.5
		c-0.1-8.8-5.9-4.9-9.5-5.5c-3.2-0.5-6.5-0.1-9.8-0.1c0-0.7,0-1.4,0-2.1c6.6,0,13.1,0,19.7,0c-11.6-0.4-23-3.3-34.5-3.2
		c-4.5,0-8.7,1.9-7.9-5.3c0.3-2.5-1.3-4.5-3.9-3.9c-8.5,2.1-16.5-2.6-24.7-1.9c-7.4,0.6-11.4-2.5-14.3-8.6
		c-2.1-4.4-12.7-8.3-0.5-13.3c0.1-0.1,0.3-0.7,0.1-0.9c-4.1-7.4,2.6-4.9,5-4.8c6.1,0.1,12.1,1.1,18.2,1.7c6.1-3.9,12.9-0.9,19.3-1.8
		c2.3-0.3,5.1,0.6,6.1-2.5c0.9-2.9-1-4.1-3.4-5.4c-2.5-1.3-3.4-4.1-3.6-6.9c-1.3-0.5-2.5-1.1-3.8-1.6c-0.6,0-1.2,0-1.8,0
		c-3-0.1-6.1-0.2-9.1-0.3c-1.8,2.5-2.8,5.8-6.5,6.6c-0.6-17.1-3.4-33.5-2.2-50.1l0.1-0.7c-11,5.1-15.8-4.8-19.3-10.5
		c-3.3-5.3-7.1-7-10.9-5.7c-4.1,1.4-3.8,6.5-2.3,10.6c0.2,0.5-0.9,1.4-1.4,2.1c-0.2,0.6-0.1,1.1,0.1,1.6c0.1,0.5,0.1,0.9,0.1,1.4
		c0.8,0.8,1.5,1.6,2.3,2.4c2.6-0.1,5.1,0,5.1,3.6c1.7,1.9,3.5,3.8,5.2,5.7c1.5,0.1,3.8,0.5,3,2.2c-1.5,3.3-4.5,4.4-8.2,3.1
		c-0.1,0.8-0.2,1.7-0.3,2.5c0,0.5,0.1,0.9,0.4,1.3c0.2,0.1,0.6,0.3,0.6,0.4c-0.1,0.4-0.3,0.8-0.4,1.3c-0.3,3-0.6,6-0.9,9
		c3.4,2.8,3.1,4.8-1.3,5.8c-0.2,0.7-0.3,1.3-0.5,2c-0.9,1.9-2.5,3.8-2.4,5.7c0.3,11.4-6.3,7.5-12,5.6c-2.4,0.5-4.8,0.9-7.2,1.4
		c-0.1,0.2-0.3,0.4-0.4,0.6c-0.1,0.1-0.3,0-0.4,0c0.3-0.2,0.6-0.3,1-0.5c-1.4-4.4-5.4-5.2-9-6.7c-1.4,0.3-2.7,0.7-4.1,1
		c0,0,0.2-0.1,0.2-0.1c-1,4.8,3.2,8.3,3.1,12.9c1,2.4-1.1,4.8,1,7.6c3.6,4.9,3,10.8,0.6,16.3c-1.7,4.1-1.2,8.4-0.6,12.6
		c2.8-1.7,5.7-3.3,8.5-5c0.4-2.4,2.1-2.2,3.8-1.9c1.2,0.2,2.6,0.3,1.4,2.1l-0.4,0.5c-10.3,14-10.3,14-18.1,4.9l-0.8,0l-0.8-0.2
		c-1.4-0.6-1.6-1.8-1.7-3.1c-6.2,1.5-7.3-2.9-9.1-7.8c7.8,0.8,13-0.3,9-9.3c-7.1,0.6-10.9,8.3-18.1,8.8c-8,9.6-10.7,9.9-20.7,2.3
		c-1.7-0.1-3-0.7-3.5-2.4l-0.8,0l-0.8-0.1c-4,5.3-1.3,7.8,4.4,9.2c-4.8,0.9-10.1,5.2-10.4-4c-0.1-3.1-3.4-4.9-6.1-3.9
		c-8.2,2.9-10.1-2.3-12-8.2c0-3.7-0.1-7.4-0.1-11.1C44.3,188.3,42.9,188.5,41.5,188.6z M139.6,188.3l0.1,0.1
		c1.4,2.2,10.5,0.9,3.4,7.1c5,9.2,3.6,17.6-3.3,20.1c-0.6-0.3-1.2-0.7-1.8-1c-1.1-6.6-0.5-13,2.3-19.2c-1-1-2-2.1-3-3.1
		c-0.5,0-0.9-0.1-1.2-0.4c-0.8-0.4-1.7-0.8-2.5-1.2c-0.9-0.3-1.9-0.6-2.8-0.8c-2.8-2.3-2.9-4.7-0.3-7.2c-0.2-1.8-0.1-3.5,1.6-4.7
		c3.6-1.9,4.7,0.6,5.8,3.2c0,1,0,2.1-0.1,3.1C140.3,184.8,139.2,186.9,139.6,188.3z M183.9,221.5
		C183.9,221.5,183.9,221.5,183.9,221.5c4-0.1,7.9-0.2,11.9,0c2.6,0.1,5.9-0.7,6.3,3.3c0.4,4.5-3.8,5.1-6.2,5c-9-0.5-18-1.8-27-2.9
		c-1.7-0.2-3-1-2.9-2.8c0.1-1.8,1.6-2.5,3.3-2.5C174.2,221.5,179,221.5,183.9,221.5z M253.7,236.5c0,0.3-0.1,0.6-0.1,0.9
		c-3.4,0-6.8,0-10.3,0c0-0.3,0-0.6,0-0.9C246.8,236.5,250.3,236.5,253.7,236.5z M129.6,194.5c1.7-0.2,2.6-0.5,3.3-0.4
		c0.8,0.2,0.8,0.8,0,1.2c-0.5,0.2-1.1,0.2-1.7,0.1C131,195.4,130.6,195,129.6,194.5z"/>
	<path class="st4" d="M314.8,169.9c17.7-0.2,35.7,1.8,53.1-2.1c16.8-3.8,34.7-3.7,50.2-12.7c2-1.2,5.2-1.6,5-4.7
		c-0.2-3-3.2-3.2-5.3-4.3c-11.1-6.1-23.4-1.7-35-3.9c-19.4-3.7-39.1,0.3-58.5-3.5c-8.6-1.7-17.1,2.2-26.3,0.4
		c-11.6-2.4-20.9-7.9-30-14.6c-2.3-1.7-2.5-2.6-0.3-4.9c4-4.2,7.3-9,14.1-8.8c3.4,0.1,5.8-2.1,6.8-5.3c1-3.3-1.7-5-3.6-6.9
		c-8.9-8.4-20.9-9.5-31.7-13.4c-12.6-4.5-25.4-8.5-38.2-12.2c-11.7-3.4-23.1-10.1-36-6.2c-11.9,3.7-14,9.4-5.1,17.8
		c12.7,11.9,20.2,28.2,34.2,38.9c2.6,2,4.6,5.6,2.6,9c-3.9,6.6-2.5,13.7-2.8,20.7c4.1-0.3,5.2-4.1,6.9-6.7c2.5-4,5.5-5.7,10.2-6.4
		c17.2-2.8,34-2.8,50.5,3.5c4.8,1.8,9.9,3.7,15,4c25.3,1.6,50.5,2.6,75.8,3.9c2.2,0.1,5.9-1.3,6.2,1.9c0.5,3.9-3.4,3.3-6,3.7
		c-13.6,1.8-27.2,3.6-40.3,7.5C322.2,165.7,316.5,163.9,314.8,169.9z"/>
	<path class="st5" d="M497.1,184.9c-15.9-0.5-31.4-5.6-47.1-5.6c-32.2,0-64.4,2.6-96.7,2.1c-5.5-0.1-11-0.5-16.5-0.8
		c-3-0.1-6.1-0.2-9.1-0.2c-1.3-0.1-2.5-0.1-3.8-0.2c-4.3,0-8.5,0-12.8,0c-5,0.3-10.1,2.6-14.8-1.2c-1.2,0-2.5,0.1-3.7,0.1
		c-1.6,4.8-1.7,8.7,5.2,7.1c2.9-0.6,6.9-2.6,6.8,2.4c-0.1,4.8-4.8,1.6-7.6,2.7c0.8,5.6,4.8,6.6,9.2,6.2c17.9-1.5,35.7-3.2,53.6-4.9
		c10.4-1,20.6-0.2,30.1,4.6c1.1,0.5,2.9,1,3,1.7c1.8,12.5,12.3,8.2,19.3,9.4c10.2,1.7,20.7-0.5,31-1.4c3-0.3,8.3-2,6.8,4.9
		c-0.3,1.2,1.1,1.8,2.4,2.2c10.1,3.6,32.3-2.1,37.5-11C493.1,197.5,492.5,190.1,497.1,184.9z"/>
	<path class="st8" d="M314.8,169.9c1.8-6,7.5-4.2,11.4-5.4c13.1-3.9,26.7-5.7,40.3-7.5c2.6-0.3,6.5,0.2,6-3.7
		c-0.4-3.2-4-1.8-6.2-1.9c-25.3-1.3-50.6-2.3-75.8-3.9c-5.1-0.3-10.2-2.2-15-4c-16.5-6.3-33.3-6.3-50.5-3.5
		c-4.7,0.8-7.8,2.4-10.2,6.4c-1.6,2.7-2.7,6.4-6.9,6.7c-1.3,2.3-2.1,4.7-1.8,7.4c0,0.6,0,1.2,0,1.8c9.2,3.9,19,2.2,28.4,2.9
		c13.6,1,26.3,8.6,40.2,6.3C288.1,169.4,301.4,170,314.8,169.9z"/>
	<path class="st8" d="M226.3,28.1c-12.3-5.4-25.6-7.6-38.5-10.3c-13.3-2.7-26.3-7.3-39.9-9c-6.3-0.8-12.8-0.2-18.9-2.6
		c-2.5-0.9-5.9-0.5-6.8,2.8c-0.8,3.1,2.2,3.9,4.4,5c1.4,0.7,2.9,1.4,4.3,1.4c13.3,0.2,21.4,12,32.5,15c7.8,2.1,16.6,6.4,25.5,3.4
		c2.2-0.7,4.6-3.4,6.6-1c2.1,2.5-1.1,4.6-2.6,6c-7.3,7.1,3.1,8.6,3.8,13.1c0.6,0,1.2,0,1.8,0c2.4,0,3.6,1.3,3.7,3.7
		c1.2,0,2.4,0,3.7,0c22.8,1.2,43.2,11.7,65.1,16.5c13.1,2.8,14.4,4.9,34.9,4.4c1.7,0,3.6,0.8,5.2,1.5c2.9,1.3,5.9,1.6,9,1.5
		c-1-6.3-5.9-8.1-11.1-9.2c-14-3-27.7-7.9-40.8-13c-10.2-3.9-20.3-8.5-30.8-11.9c-9.8-3.2-19.4-6.8-29.2-10.2
		c-2.6-0.9-4.7-2.4-3.6-5.3c1.1-2.8,3.3-1.6,5.3-0.5C215.8,32.4,221.1,30.1,226.3,28.1z"/>
	<path class="st4" d="M320.3,79.6c-3.1,0.2-6.1-0.2-9-1.5c-1.7-0.7-3.5-1.6-5.2-1.5c-20.5,0.5-21.9-1.6-34.9-4.4
		c-21.9-4.8-42.4-15.2-65.1-16.5c4.1,8.5,13,6.7,19.8,8.8c17.4,5.5,34.7,11.3,52.1,16.8c27.5,8.7,53,22.6,81.2,29.7
		c18.3,4.6,36.7,7.2,55.3,9.1c11.1,1.1,19.8,8.8,30.4,11.3c3.9,0.9,7.7,1.9,11.7,1.7c0.4-4-4.2-3.1-5.5-5.5
		c-2.5-0.6-4.9-1.2-7.4-1.9c-3.4-1.3-8.1-0.4-9.2-5.5c-26.9-11.4-55.4-18.4-82.8-28.4C341.2,87.9,330.4,84.7,320.3,79.6z"/>
	<path class="st10" d="M181,121.9c0,0-0.1,0.7-0.1,0.7c6.4,6.1,8,14.3,8.6,22.5c0.5,7,0.1,14,0,21c3,0.1,6.1,0.2,9.1,0.3
		c-0.8-2.5-4.3-4.1-2.9-7.2c3.4-8-0.5-16,0.1-24.1c0.4-5.4-2.3-11.7-8-16.4c-5.7-4.7-10.6-11.1-13.2-18.7
		c-7-5.6-13.7-11.5-21.1-16.5c-3.6-2.5-8.1-4.5-13-2.8c12.9,9.3,25.7,18.6,35.1,31.8C177.9,115.3,180.3,118.1,181,121.9z"/>
	<path class="st6" d="M174.7,99.9c2.5,7.5,7.5,14,13.2,18.7c5.7,4.7,8.4,11,8,16.4c-0.7,8.1,3.2,16.2-0.1,24.1
		c-1.3,3.2,2.1,4.8,2.9,7.2c0.6,0,1.2,0,1.8,0c-0.5-11.5,4.3-22.9,0.1-34.5c-4.5-12.3-12.5-22.1-21.5-31.3
		C178.3,99.7,176.2,100.1,174.7,99.9z"/>
	<path class="st10" d="M112.1,68.7c5.5,3.3,11.9,4.2,17.8,6.1C127.6,67.8,118.1,64.6,112.1,68.7z"/>
	<path class="st6" d="M296.4,179c4.7,3.8,9.8,1.5,14.8,1.2C306.6,174.8,301.5,176.8,296.4,179z"/>
	<path class="st4" d="M482.4,144.1c-1.1-5.1-5.8-4.3-9.3-5.5C473.7,144.7,478.2,144.1,482.4,144.1z"/>
	<path class="st10" d="M132,76c0.9,1.6,2.3,2.1,4,1.8c-0.2-1.7,0.3-3.8-2-4.3C133.6,73.4,132.7,75.1,132,76z"/>
	<path class="st4" d="M491.6,147.8c-0.2-3.7-2.9-3.7-5.6-3.6C486.3,147.8,488.9,147.8,491.6,147.8z"/>
	<path class="st6" d="M323.9,180.3c1.3,0.1,2.5,0.1,3.8,0.2c-0.1-1.2-0.4-2.4-1.8-2.5C324.5,177.9,324.1,179.1,323.9,180.3z"/>
	<path class="st4" d="M202.4,55.7c-0.1-2.4-1.3-3.6-3.7-3.7C198.8,54.4,200,55.6,202.4,55.7z"/>
	<path class="st4" d="M460.3,134.9c-0.8-1.5-2.2-1.8-3.7-1.9C457,135.4,457.4,137.7,460.3,134.9z"/>
	<path class="st4" d="M469.5,138.6c-0.8-1.5-2.2-1.8-3.7-1.9C466.2,139.1,466.6,141.4,469.5,138.6z"/>
	<path class="st4" d="M500.8,151.4c-0.1-2.4-1.3-3.6-3.7-3.6C497.2,150.2,498.4,151.4,500.8,151.4z"/>
	<path class="st4" d="M521.1,158.8c-0.1-2.4-1.3-3.6-3.7-3.7C517.5,157.5,518.7,158.8,521.1,158.8z"/>
	<path class="st4" d="M206.1,162.5c0-0.6,0-1.2,0-1.8C204.8,161.3,204.8,161.9,206.1,162.5z"/>
	<path class="st14" d="M211.6,359.7c2.5,0,5,0.1,7.5,0.1c6.8-1.3,13.6-2.6,20.3-4.1c1.4-0.3,1.7-1.9,2.4-3c1.9-2.9,3.4-8.6,9-3.2
		c4.7,4.5,9.2-3.4,14.2-0.9c0.1-1.2,0.7-1.9,1.9-2c0,0-0.1,0-0.1,0c0-0.8,0-1.6-0.1-2.4c0.1-2.1,0.2-4.1-2.2-5.1
		c-7-0.4-12.9,3.9-19.7,4.3c-0.9,1.4-2.3,1.6-3.7,1.6c-0.9,1.6-2.3,1.7-3.8,1.5c-1.2,0-2.3,0-3.5,0c-4.4,4.1-9.8,1.3-14.7,2
		c-0.9,1.6-1.7,3.4-4,2.9c-0.3-0.1-0.8-1-0.7-1.4c0.5-2.6,2.6-3.1,4.8-3.2c0-0.6,0.1-1.1,0.2-1.7c-0.9-4.2,1.9-6.6,4.3-9.4
		c8.5-10.2,15.3-21.4,21.3-33.2c-6.3,0.1-7.7,9.6-15.7,7.7c-4.1-1-8.5-1.4-10-5.2c-4.1-10-12.3-5.2-18.9-5.8
		c-2.7-0.2-3.2,2.4-3.2,4.6c-0.1,2.8-0.2,5.7,2.8,7.2c1.6,0.8,3.5,1.2,5.1,2c7.7,4,7.6,10.8,1.6,16.6c-6,5.8-10.5,8.9-19.4,4.9
		c-5.9-2.6-5.8,8.1-11.3,9.8c-1,0.3-0.9,2.4,0.1,3.2c3.7,2.9,8.9,5.9,12.5,3.8c7.4-4.2,10.4,0.1,14.2,4.6
		C205.7,356.7,209,357.1,211.6,359.7L211.6,359.7z"/>
	<path class="st14" d="M110.6,277.8c1.2,6.1,5.3,5.6,10.6,7.2c15.7,4.8,32.2-0.9,47.4,5.4c3,1.3,7.5,1.4,10.5,0.1
		c13.6-5.9,28.1-3.6,41.4-1.8c7,1,15.1,6.1,23.1,8.6c0.7,0.2,0.8,2.2,1.2,3.3c4.8,0.4,6.3-6.1,11.2-5.3c1.9,0,3.7,0.1,5.6,0.1
		c1.9,0.1,3.7,0.2,5.6,0.3c1-0.8,2-1.7,3-2.5c0.2-1,0.5-1.9,0.7-2.9c-0.3-1.6-0.5-3.4-2.1-4.4c-3.6,0-7.3,0.1-10.9,0.1
		c-8,2.4-16.2,1.3-24.3,1.3c-3.9,3.5-6-3-9.5-1.7c-9.5,0-19,0-28.5,0c-6.8-0.1-13.7-0.3-20.5-0.4c-4.4-0.4-8.9-0.9-13.3-1.3
		C144.7,282.7,127.4,281.8,110.6,277.8z"/>
	<path class="st3" d="M58.8,262.3c0.2,1.5,0.9,4,0.4,4.4c-13,8.4-15.9,23.6-23.8,35.3c-2.2,3.3-4,7-7.2,9.1c-4.1,2.6-4.8,5.9-4.5,10
		c6.5,1.7,9.4-1.9,11.1-7.4c-0.1-2.3,1.4-3.8,2.7-5.6c7-9.4,15.8-17.6,20.6-28.3c2.5-5.5,7.5-10.5,6.2-17.4
		C62.4,262.3,60.6,262.3,58.8,262.3z"/>
	<path class="st5" d="M64.2,262.3c1.3,6.9-3.7,11.9-6.2,17.4c-4.8,10.7-13.6,19-20.6,28.3c-1.3,1.7-2.7,3.2-2.7,5.6
		c9.9-3.8,15.4-12.9,21.4-20.3c6.1-7.6,10.5-16.3,19.7-21c0.8-0.4,0.9-2.1,1.4-3.2c0,0-0.1-0.8-0.1-0.8c-0.3,0.3-0.6,0.4-0.9,0.6
		c-1,0-1.9-0.1-2.9-0.1c0.5-0.4,1-0.8,1.6-1.2c0.1-0.7,0.1-1.3,0.2-2c-0.2-0.6-0.1-1.2,0.1-1.7C71.9,260.7,67.9,262.5,64.2,262.3z"
		/>
	<path class="st3" d="M256,295.3c-5-0.8-6.5,5.7-11.2,5.3c0,0.6,0,1.2-0.1,1.8c-6,11.8-12.8,23.1-21.3,33.2
		c-2.4,2.8-5.2,5.2-4.3,9.4c8.2-1.6,14-7.5,16.4-14.2c3.9-10.9,13.1-17.6,18.4-27.3C255.8,300.4,256.1,298.3,256,295.3z"/>
	<path class="st13" d="M75.1,265.6c-0.1,0.7-0.1,1.3-0.2,2l0.6-0.2c0.5,0.3,1.1,0.6,1.6,0.9c0,0,0.1,0.8,0.1,0.8
		c11.1,2.9,22.2,5.8,33.3,8.7c16.9,4,34.1,4.8,51.3,6.2c-0.3-2.7-2-3.8-4.4-3.5c-7.4,0.8-14.6-1.1-21.8-2
		c-18.6-2.5-37.4-4.9-54.7-12.8l0,0C78.9,265.6,77,265.6,75.1,265.6z"/>
	<path class="st3" d="M92.6,352.2c1.4,1.3,3,2,4.9,1.8c0.5-5.2,4.4-3.5,7.4-3.6c5.5-2.6,11,0.5,16.5,0c-0.1-2.3-0.9-4.8-3.2-4.9
		c-11.9-0.5-23.5-4.7-35.5-2.4C86.9,345.1,91.8,346.3,92.6,352.2z"/>
	<path class="st7" d="M92.6,352.2c-0.8-5.9-5.7-7.1-10-9c-6.1,0-12.1-5.2-18.4-0.4c-0.2,3.3,2.1,3.9,4.5,4.5
		C76.6,349.3,84.3,352.3,92.6,352.2z"/>
	<path class="st5" d="M211.6,359.6c-2.5-2.5-5.9-2.9-9.2-3.7c-11.8,2.8-23.8,3.7-35.8,3.7c-3.9,0-7.8,0-11.7,1.9
		c13.4,0,26.8,0,40.2,0C200.3,358.4,206.1,360.1,211.6,359.6z"/>
	<path class="st9" d="M121.3,350.5c-5.5,0.5-11-2.6-16.5,0c-0.2,0.7-0.3,1.4-0.5,2.1c2.6,1.3,5.2,2.5,7.8,3.8
		C115.8,355.3,121.9,358.1,121.3,350.5z"/>
	<path class="st5" d="M185.8,184.6c-6.1-0.6-12.1-1.5-18.2-1.7c-2.3,0-9-2.5-5,4.8c0.1,0.2,0,0.8-0.1,0.9c-12.2,5-1.6,8.9,0.5,13.3
		c2.9,6.1,7,9.3,14.3,8.6c8.2-0.7,16.2,4,24.7,1.9c2.5-0.6,4.2,1.3,3.9,3.9c-0.8,7.2,3.4,5.3,7.9,5.3c11.5,0,22.9,2.9,34.5,3.2
		c-6.6,0-13.1,0-19.7,0c0,0.7,0,1.4,0,2.1c3.3,0,6.6-0.4,9.8,0.1c3.6,0.6,9.4-3.3,9.5,5.5c0,3.4,5.6,1.7,8.6,0.5
		c3.7-1.5,7.2-3.9,11.2-1c1.3,1,1.3,3,0.4,4.2c-2.6,3.9-6.7,3.7-10.7,3.7c-1.5,0-3.1-0.1-4.6,0c-3.7,0.4-8.2-1.7-10.5,3.3
		c-2.5,5.5,4.5,2.6,4.8,5.5c0.1,1.2-0.3,2.4-0.5,3.6c2.5,0.2,4.9,0.4,7.4,0.5c12.1-1.3,24.5-1.7,36.4-4.2c8.2-1.8,16.9,2,24.6-2.7
		l-0.2-0.6c0.7-3.9,3.7-5.6,6.9-4.9c2.7,0.6-0.1,3.4,0.4,5.2c2.4,2.3,3.9,2.1,4.1-1.5c-0.6-4.1,0.2-7.3,5.2-7.9
		c10.6-1.2,21.1-3.2,31.7-3.5c6.3-0.2,10.9-1.6,14.3-7.7c-11.9,0.9-23.6-0.2-35.4,1.2c-10,1.2-20.6-0.7-30.8-2.4
		c-4.4-0.8-8.7-3-13.3-2.3c-7.9,1.2-7.9-7.6-13.1-10.3c-2-1.1,2-2.3,3.9-2.6c2.3-0.4,5.6,0.5,5.4-3.2c-0.2-3.5-3.1-4.1-6.1-4.2
		c-8-0.2-16.2,1.3-23.1-5.3c-1.9-1.8-6.5-3.6-9.9,0.4c-1.7,2-5,1.9-7,1c-8.8-4.2-18.3-0.7-26.6-2.4c-14.5-2.9-27.9,2.1-42.3,1.3
		c1.9-7,8.9-4.8,13.2-7.1C191.4,185.1,186.9,187.5,185.8,184.6z"/>
	<path class="st12" d="M326.1,244.2c-0.2,3.7-1.7,3.8-4.1,1.5c-2.4-0.1-4.9-0.2-7.3-0.3c0,0,0.2,0.6,0.2,0.6c2,3,1.5,5.4-1.9,6.8
		c10.6,1.3,20.9-2.4,31.4-2.2c10.8-4.7,22.3-3.9,33.3-6.9c0.1,1,0.3,2.1,0.4,3.1c-11.3,2-22.7,4-34,6c-20.6,3.6-41.3,6.8-62.1,8.9
		c-6.4,5-13.4,3.9-20.4,1.7c-0.8,4.2,0.8,6.2,5.2,6.1c6.9-0.1,13.7,0.1,20.6,0.2c4.7-0.2,9.4-0.4,14.2-0.7c0.8-2.3-3.7-6.8,2.2-6.8
		c13.3,0,26-4.6,39.6-4.6c-1.1,2.7-3.1,2-4.8,2.5c-8.6,2.5-18.2,0.2-26,6c12.5-0.3,24.8-2.8,37-5.1c19.7-3.7,39.3-7.9,58.9-12l0,0
		c2.8-2.7,11.2-1.1,7.1-9.2c-11.3-0.3-22.1,3.5-33.4,4.4c11.7-5.8,24.4-7.5,36.9-10.2c1.8-3.1,3.7-2.6,5.7-0.1
		c0.6-0.6,1.1-1.3,1.7-1.9c1.3-1.4,3.8-2.5,4.4-1c1,2.5-2.1,1.4-3.3,2c-0.6,0.6-1.3,1.2-1.9,1.9c-1.3,6.6-3,13.2-0.7,19.9
		c9,6.9,19.8,1.5,22.1-11.9c1.2-7.5,2.4-16.5-7.4-19.8c-5.2-1.7-10.9,0-16.4,1.2C391.1,231.6,359,239.6,326.1,244.2z M349.8,258.6
		c-0.1-1.1-0.2-2.2-0.3-3.2c10-0.4,19.3-5.5,29.9-2.7C369.5,254.6,359.6,256.6,349.8,258.6z"/>
	<path class="st12" d="M355,271c4.2-2,8.7-2,13.2-2.6c7.4-2,14.7-3.9,22.1-5.9c9.1-2.2,18.3-4.3,27.4-6.5c2.9-9.9-4.7-6.3-9-6.9
		c0,0,0,0,0,0c-3.2,3.9-8,4.4-12.2,5.3c-18,4-36,7.6-54,11.3c1.3,2.4,5.8,1.5,5.5,5.5C350.3,271.2,352.7,271.1,355,271z"/>
	<path class="st5" d="M309.6,215.9c2.7-0.4,7.9,1.1,7.6-3.3c-0.3-4.4-3.5-8.7-9.8-7.9c-3.6,0.5-7.6-0.5-7.3,5.3
		C300.4,216.3,304.9,215.9,309.6,215.9z"/>
	<path class="st11" d="M408.7,249.1c4.3,0.6,11.8-2.9,9,6.9c2.5-0.4,5-0.8,7.5-1.2c-2.3-6.7-0.6-13.3,0.7-19.9
		c-0.3-0.3-0.6-0.6-0.9-0.9c-2-2.4-3.9-3-5.7,0.2c0.6,3,0.3,5.4-3.5,5.8C420,248,411.5,246.4,408.7,249.1z"/>
	<path class="st5" d="M282.1,199.1c3.4-2,6.7-4.2,5.8-8.2c-0.7-3.4-6.1-2.8-5.9,0.7C282.3,194.1,282.9,196.5,282.1,199.1z"/>
	<path class="st5" d="M365.1,199.5c-1.5,0-2.9,0-3.2,1.4c-0.4,1.7,1.1,1.8,2.3,2c1.2,0.2,2.6,0,2.9-1.4
		C367.6,199.8,365.9,199.9,365.1,199.5z"/>
	<path class="st5" d="M312.6,199.4c-1.6,0.2-4.6,0.1-4.7,0.5c-0.3,2.3,1.7,1,2.7,1.2c0.7,0.1,1.6-0.3,2.4-0.5
		C312.9,200.2,312.7,199.8,312.6,199.4z"/>
	<path class="st5" d="M238.5,187.5c0.5,0.2,0.8,0.2,1,0.3c0.1-0.2,0.1-0.5,0.2-0.7C239.4,187.3,239.1,187.4,238.5,187.5z"/>
	<path class="st15" d="M320.3,79.6c10.1,5.1,20.9,8.3,31.4,12.1c27.4,10,55.9,17,82.8,28.4c4,0.2,8.2,0.3,9.2,5.5
		c2.5,0.6,4.9,1.2,7.4,1.9c1-1.4,3.1-2.5,3.8-1.7c6.1,7.5,15.8,3.4,22.9,7.5c1.3,0.7,2.8,1.4,4.3,1.4c3.6,0,8,4.6,10.5-0.8
		c2.3-5-1.5-7.5-5.9-9.2c-1.8-0.7-2.3-2.7-2.4-4.6c-2.5-1.1-4.2-3.9-7.4-3.7c-2.9,2.8-3.3,0.5-3.7-1.8c-12,0.1-20.6-8.8-31.2-12.3
		c-21.4-7-41-18.3-62.7-24.6c-2.7,0.1-5.3,0.1-5.6-3.6c-1.2,0-2.4,0-3.6,0c-4.3-0.6-9.2,0-11.1-5.5c-3.7-0.6-7.1-2.5-11-1.9
		c-4.6-1.9-10.4-1.8-13-7.3c-3.1-0.6-6.1-1.2-9.2-1.9c-2.9,2.8-3.3,0.5-3.7-1.8c-2.5-0.3-5.4,0.8-7.4-1.9c-2.3-0.1-3.6-1.3-3.7-3.6
		c-3.7-0.6-7.3-1.3-11-1.9c-3,2.9-4.8,2-5.6-1.8c-3.1-0.6-6.1-1.3-9.2-1.9c-9.2,1.2-16.4-5.5-25.2-6.2c-2.7-0.2-5.3-0.8-8-1.1
		c-7.2,3.1-12.6,1-16.6-5.5c-3.1-1.2-6.1-2.5-9.2-3.7c-5.3,2.1-10.5,4.3-16.2,1.4c-2-1-4.2-2.3-5.3,0.5c-1.1,2.9,1.1,4.4,3.6,5.3
		c9.7,3.4,19.4,7.1,29.2,10.2c10.5,3.4,20.6,8,30.8,11.9c13.1,5.1,26.8,9.9,40.8,13C314.4,71.5,319.3,73.3,320.3,79.6z"/>
	<path class="st8" d="M235.6,31.7c4,6.5,9.4,8.6,16.6,5.5C247.8,31.9,241.5,32.3,235.6,31.7z"/>
	<path class="st6" d="M149.4,123.8c-0.8-0.8-1.5-1.6-2.3-2.4c-0.5-0.1-0.9-0.1-1.4-0.2c0.4-0.4,0.9-0.8,1.3-1.2
		c-0.2-0.5-0.3-1.1-0.1-1.6c-3.5-7.1-12.4-9.4-15.2-17.3c-0.4-1.1-3.2-1.3-4.9-1.9c2.1,5.8,1.8,10-6,9.6c-0.4,0.2-0.8,0.4-1.1,0.6
		c-0.7,1.1-1.4,2.3-2.1,3.4c0,1.8-0.1,3.6-0.1,5.4c3.5,0.6,7.2-1.1,11,1.7c-4.3,1.6-3.6,5-3.3,8.1c7.2-2.6,17.1,1.3,21.7,8.4
		c1.1,0.6,2.2,1.1,3.4,1.7c0.9-1.8,2.6-1.4,4.2-1.6c0.6-2.9,5.3,0.3,5.3-3.5c-1.7-1.9-3.5-3.8-5.2-5.7
		C152.1,127.2,150.1,126.4,149.4,123.8z M121.4,114.2c-0.2-0.1-0.5-0.3-0.7-0.4c0.2-0.2,0.4-0.5,0.6-0.5c0.2,0,0.5,0.2,0.7,0.3
		C121.8,113.8,121.6,114,121.4,114.2z"/>
	<path class="st13" d="M62.4,127.4c-1.6-0.1-4,0.6-3,2c5.6,7.6,3.4,16.1,3.6,24.3c-0.2,4.6,2.7,5.5,6.4,5.2c3.2-0.3,6.4-0.8,9.5-1.2
		c-0.1-0.4-0.1-0.9,0-1.3c0.2-2.8-0.8-6.3,3.6-7c0-2,0.1-4,0.1-6c-2.1-2.2-3.3-4.5-0.3-6.9c3.1-2.5,1.8-5.2,0.6-8
		c-0.6,0.3-1.2,0.5-1.2-0.5c-0.9-0.1-1.9-0.3-2.8-0.4C73.4,129.1,67.9,127.7,62.4,127.4z"/>
	<path class="st3" d="M78.9,157.6c-3.2,0.4-6.3,0.9-9.5,1.2c-3.7,0.3-6.6-0.6-6.4-5.2c-2.1-0.7-4.2-1.4-6.3-2.1
		c-3.8,6.5-5.5,13.1-1.9,20.3c2.7-2.5,3.8-9.2,9.5-3.5c0.6-0.1,1.2-0.2,1.8-0.3l-0.1,0.1c1.1-1.9,2.5-2.7,4.7-1.8
		c0.8,0,1.6,0,2.4-0.1c0.4-0.3,0.7-0.6,1.1-0.9c-0.2,0.4-0.5,0.7-0.7,1.1c0,0.6,0.1,1.1,0.1,1.7c2.4,1.2,0.9,3.7,1.7,5.4
		c0.6,0.7,2.3,1.1,0.5,2.3c-0.2-0.8-0.3-1.6-0.5-2.3c-0.7,0-1.5,0-2.2,0c-1.7-0.5-3.5-1-5.2-1.4c-1.8,2.4-6.7,0-6.9,4.5
		c-0.1,2,1.7,2.2,3.2,2.5c1.7-0.2,3.4-0.4,5.1-0.6c1-2.5,1.9-2.1,2.7,0.1c2.6,2,1.9,5,2.6,7.6c4.6,0.9,4.4-2.3,4.5-5.3l-0.1-0.1
		c-1.5-0.7-1-1.3,0.1-1.9c0.6-3.1,1.3-6.2,1.9-9.4c-5-3.3-2.5-7-0.7-10.7C79.8,158.5,79.4,158,78.9,157.6z"/>
	<path class="st6" d="M111.5,105.6c-0.6-5.4-8.2-11.4,2-15.5c-10.4-5.9-11.1-5.8-14.8,5c-1.8,5-3.5,9.8-10.3,8.8
		c5.2,1.4,8.8,4,7.4,10.2c2.6,2.3,6,0.6,8.8,1.8c0.5-0.5,0.9-1,1.4-1.5C108.2,111.7,106.4,106.5,111.5,105.6z"/>
	<path class="st10" d="M95.8,114.1c1.4-6.2-2.2-8.8-7.4-10.2c-0.6-0.2-1.2-0.3-1.9-0.5c-4.5-1.7-9.3-6-12.5,1.8
		c-0.6,1.5-2.4,1.7-3.9,0.6c-1.4-1-1.9-2.4-0.6-3.8c1.6-1.6,0.4-2.7-0.5-3.9c-2.7,2.5-5.5,5.1-8.2,7.6c1.5,7.2,10.6,2.4,12.9,8.3
		c1.7,0.3,3.5,0.6,5.2,0.9c1.2-2.3,3.5-2.1,5.6-2.3c0-0.6,0-1.2,0-1.8c-0.2-0.1-0.5-0.2-0.7-0.4c-0.1-0.1-0.1-0.3-0.1-0.5
		c0.2,0.3,0.5,0.6,0.7,0.9c1.3,0.2,1.8,1.1,1.9,2.3c-0.5,1.1-1,2.3-1.6,3.4c2.9-0.7,5.9-1.3,8.8-2C94.3,114.4,95.1,114.3,95.8,114.1
		z"/>
	<path class="st9" d="M69,98.2c0.9,1.2,2.1,2.2,0.5,3.9c-1.3,1.4-0.8,2.8,0.6,3.8c1.5,1.1,3.3,0.9,3.9-0.6c3.2-7.8,8-3.6,12.5-1.8
		c-0.1-0.5-0.1-1.1,0.1-1.6c-1.2-4.5,1.3-5.7,5.1-5.8c-0.5-0.8-0.9-1.5-1.4-2.3c-3.8,1.1-6.4-0.2-7.8-3.9
		C76.2,89.7,71.3,91.8,69,98.2z"/>
	<path class="st9" d="M95.8,114.1c-0.7,0.2-1.5,0.3-2.2,0.5c1.7,5.3,5.9,7.2,10.9,7.9c4.4-3.3,5.6-10.8,13.2-9.7
		c0.7-1.1,1.4-2.3,2.1-3.4c-3.3-0.1-6.9,0.5-8.2-3.8c-5.1,0.9-3.3,6.1-5.5,8.8c0.3,1.2-0.3,1.6-1.4,1.5
		C101.8,114.7,98.4,116.4,95.8,114.1z"/>
	<path class="st9" d="M73.7,114.1c-2.3-5.9-11.4-1.1-12.9-8.3c-2.6-0.3-6.1-1.7-7.2,1.8c-1.3,4,3.6,3.2,5.2,5.1
		c2.2,2.7,5.7,1.5,8.6,1.9c0.8,0,1.6,0,2.4,0C71.2,114.5,72.4,114.3,73.7,114.1z"/>
	<path class="st3" d="M83,118.2c-2.3,0.2-3.8,1.2-4,3.7c0,0,0.1,0.2,0.1,0.2c0.5,0.5,1.1,0.9,1.6,1.4c2,0.7,2.4,2.4,2.9,4.1
		c2,0.1,3.9,0.1,5.9,0.2c1.2-1.5,2.9-2.1,4.8-2c-0.4-6-6.4-5.1-9.5-7.7l-0.9,0.2L83,118.2z"/>
	<path class="st14" d="M62.4,127.4c5.5,0.3,11,1.8,16.5,0c0.1-1.1,0.2-2.2,0.3-3.3c0-0.7,0-1.4,0-2.1c0,0-0.1-0.2-0.1-0.2
		c-2.5,0.1-5,0.1-7.5,0.2c0.6,4.6-1.9,2.3-3.7,1.7c-1.1,0.1-2.2,0.1-3.4,0.2c-0.7,0.7-1.4,1.4-2,2.1
		C62.4,126.5,62.4,126.9,62.4,127.4z"/>
	<path class="st10" d="M120.9,108.8c7.8,0.4,8.1-3.9,6-9.6C119.1,98.8,122,105,120.9,108.8z"/>
	<path class="st7" d="M82.6,90c1.4,3.6,4,4.9,7.8,3.9C88.3,86.4,87,85.8,82.6,90z"/>
	<path class="st7" d="M64.5,123.9c1.1-0.1,2.2-0.1,3.4-0.2c0-0.8-0.1-1.5-0.1-2.3c-0.1-0.5-0.2-1-0.3-1.5c-1.8-0.8-3.6-2.5-5.7-0.9
		c-1.1,0.9-0.7,2.1,0.3,3C62.8,122.7,63.6,123.3,64.5,123.9z"/>
	<path class="st9" d="M83,118.2l0.9,0c0,0,0.9-0.2,0.9-0.2c-0.1-0.5-0.1-0.9,0-1.3c0.5-1.1,1-2.3,1.6-3.4c-0.6-0.2-1.2-0.3-1.8-0.5
		c-2.1,0.2-4.4,0-5.6,2.3C80.3,116.1,81.6,117.1,83,118.2z"/>
	<path class="st7" d="M91.8,96.1c-3.8,0.1-6.3,1.3-5.1,5.8C88.8,100.3,92.1,99.8,91.8,96.1z"/>
	<path class="st4" d="M67.7,121.4c0,0.8,0.1,1.5,0.1,2.3c1.8,0.6,4.3,2.9,3.7-1.7c-0.5-0.3-1-0.5-1.5-0.9
		C69.2,121.3,68.5,121.4,67.7,121.4z"/>
	<path class="st9" d="M64.5,123.9c-0.8-0.6-1.7-1.3-2.5-1.9c0.2,1.3,0.3,2.6,0.5,3.9C63.1,125.3,63.8,124.6,64.5,123.9z"/>
	<path class="st9" d="M67.7,121.4c0.8-0.1,1.5-0.2,2.3-0.3c-0.5-1.2-1.4-1.4-2.6-1.2C67.5,120.5,67.6,121,67.7,121.4z"/>
	<path class="st10" d="M69.9,114.6c-0.8,0-1.6,0-2.4,0C68.3,116,69.1,116.3,69.9,114.6z"/>
	<path class="st15" d="M299.9,318.7c0.5,0.1,1.1,0.2,1.7,0.1c-0.4-2.6,0.7-3.8,3.3-3.6c1.8-2.8,4.5-4.4,7.2-6c1-2.1,1.9-4.3,2.9-6.4
		c-0.2-2.9-0.4-5.7,3.7-5.7c1.8-3.1,3.7-6.1,5.5-9.2c-3.3-2.2-9.1-1.1-9.3-7.3c-1.6-0.5-3.3-0.9-4.9-1.4c-5.4,4.9-13.2,2.9-19.1,6.7
		c2,1.9,3.8,4.1,1.2,6.7c-3.6,3.8-6.3,8.8-12,10.1c-0.7,4.4-4.6,7.9-4,12.7c2.9,2.8,0.7,3.3-1.7,3.7l0,0c1.1,5-5.2,8.1-3.4,13.2
		c1.2,0,2.4,0.1,3.6,0.1c2.6-1.1,5.3-2.3,7.9-3.4C287.2,324,292.7,319.9,299.9,318.7z"/>
	<path class="st9" d="M314.9,302.8c-1,2.1-1.9,4.3-2.9,6.4c4.7,1.7,5-4.1,8.2-4.9c1.4-1.8,2.4-4.4,5.5-3.7c0,0,0,0,0,0
		c-0.7-3.2,0.7-5.3,3.7-6.4c-0.3-1.4,0.3-2.3,1.4-3.1c3.3-5.9,6.7-11.8,10-17.7c-5.8-2-11.1,2.8-16.9,1.5c-0.6,1.2-1.2,2.3-1.8,3.5
		c1.9,1.2,6.5-2.5,6.1,3.2c-6.3-1.2-1,5.3-4.1,6.2c-1.8,3.1-3.7,6.1-5.5,9.2C318.7,299.8,317.4,301.7,314.9,302.8z"/>
	<path class="st5" d="M340.9,273.5c-3.3,5.9-6.7,11.8-10,17.7c0.3,4.2,1,6,5.8,2.9c8.4-5.4,13.4-14.6,22.2-19.4
		c0-2.6-1.7-3.4-3.9-3.6c-2.4,0.1-4.7,0.1-7.1,0.2C346.1,273.6,343.1,272.4,340.9,273.5z"/>
	<path class="st3" d="M264.6,339.1c2.3,1,2.3,3.1,2.2,5.1c1.8,0.3,3.7,0.5,5.5,0.8c4-2.8,1.8-6.6,1.5-10.1c-1.2,0.1-2.3,0.3-3.5,0.4
		c-1.1,0.1-2.2,0.3-3.3,0.4C266.2,336.9,265.4,338,264.6,339.1z"/>
	<path class="st9" d="M299.9,318.7c-7.2,1.2-12.6,5.3-17.5,10.3C289.6,328.1,296.3,326,299.9,318.7z"/>
	<path class="st3" d="M325.7,300.6c-3.2-0.7-4.1,1.9-5.5,3.7c0.6,1.3,1.8,3.2,3,2.4C325.1,305.4,326,303.1,325.7,300.6z"/>
	<path class="st9" d="M304.8,315.3c-2.6-0.1-3.7,1.1-3.3,3.6c2.5,0.2,4.5-0.7,6.2-2.4C306.8,316.1,305.8,315.7,304.8,315.3z"/>
	<path class="st3" d="M329.4,294.2c-3,1.1-4.3,3.2-3.7,6.4C330.3,300.4,329.4,297,329.4,294.2z"/>
	<path class="st9" d="M270.2,335.3c1.2-0.1,2.3-0.3,3.5-0.4c0.2-0.8,0.5-1.6,0.7-2.4c-1.2,0-2.4-0.1-3.6-0.1c0,0-0.1-0.2-0.1-0.2
		C270.6,333.2,270.4,334.3,270.2,335.3z"/>
	<path class="st3" d="M281.4,336.3c-0.3,0.4-0.8,0.7-0.9,1.1c-0.1,1,0.6,1.5,1.5,1.2c0.3-0.1,0.7-0.9,0.6-1.3
		C282.6,336.9,282,336.7,281.4,336.3z"/>
	<path class="st10" d="M272.2,345c-1.8-0.3-3.7-0.5-5.5-0.8c0,0.8,0,1.6,0.1,2.4C269.1,347.8,271,347.4,272.2,345z"/>
	<path class="st10" d="M266.8,346.6c-1.2,0.1-1.8,0.8-1.9,2C266.1,348.4,267.2,348.2,266.8,346.6z"/>
	<path class="st4" d="M335,59.4c2.6,5.5,8.4,5.4,13,7.3C345.9,60.2,339.7,61.2,335,59.4z"/>
	<path class="st4" d="M359,68.6c1.9,5.5,6.8,4.9,11.1,5.5C368.2,68.5,363.3,69.2,359,68.6z"/>
	<path class="st4" d="M373.7,74.1c0.2,3.7,2.9,3.7,5.6,3.6C379,74,376.4,74.1,373.7,74.1z"/>
	<path class="st4" d="M294.5,46.5c0.8,3.8,2.6,4.8,5.6,1.8C298.7,46.1,296.5,46.5,294.5,46.5z"/>
	<path class="st4" d="M311,50.2c0.1,2.3,1.4,3.5,3.7,3.6C314.7,51.4,313.5,50.2,311,50.2z"/>
	<path class="st4" d="M322.1,55.7c0.4,2.3,0.8,4.6,3.7,1.8C325,56,323.7,55.7,322.1,55.7z"/>
	<path class="st8" d="M473.2,114.7c0.4,2.3,0.8,4.6,3.7,1.8C476.1,115,474.7,114.7,473.2,114.7z"/>
	<path class="st12" d="M78.9,241.5c-2-0.1-4-0.3-5.9-0.4c-0.1,0-0.3-0.5-0.2-0.6c0.1-0.2,0.4-0.4,0.6-0.6c-0.7-1.6-2.2-1.7-3.6-1.8
		c-3.7,2.3-6.7,1.2-9.2-1.9c-2.8-0.5-5.4-1.3-7.2-3.6c-5,5.4-8.7-3.2-13.5-1.4c-0.4,3.3,5.4,4.9,2.3,8.7c-0.6,1.3-1.2,1.8-1.9,0.1
		l0,0c-6.4,0.9-2.6,4.5-1.9,7.3c2.2,3.4,5.5,5.5,9.3,6.7c0.6,0.9,1.3,1.7,1.9,2.5c0,0,0-0.2,0-0.2c1.2-0.5,2.4-1.1,3.6-1.6
		c1.9-5.3-4.4-4.3-5.7-7.4c-0.9-2.1-3.9-4-2.2-6.2c1.6-2.2,4.1-0.8,6.3,0.6c8.5,5.3,16.9,12.6,27.4,3.6
		C78.9,244,78.9,242.7,78.9,241.5z"/>
	<path class="st11" d="M38.4,247.2c-0.8-2.8-4.5-6.3,1.9-7.3c-1.7-3-3.6-5.6-7.5-5.6c0.1,2.4,0.1,4.9,0.2,7.3
		c1.3,1.9,2.5,3.8,3.8,5.8C37.2,247.3,37.8,247.3,38.4,247.2z"/>
	<path class="st7" d="M11.1,307.8c0-0.9,0.1-1.8,0-2.7c-0.3-1.9,0.7-4.5-1.9-5.5c-0.6-0.2-1.8,0.3-2.3,0.8c-2.7,3,1.3,3.9,2,5.9
		c0.3,0.8,1.2,1.3,1.8,1.9C10.6,308.2,11.1,307.8,11.1,307.8z"/>
	<path class="st7" d="M5.4,311.6c0.1-1.5,0.3-2.9,0.4-4.4c-0.5,0-1.4-0.3-1.6-0.1c-1.3,1.8-0.8,3.4,0.9,4.7
		C5.2,311.8,5.4,311.6,5.4,311.6z"/>
	<path class="st10" d="M14.4,278.5c-2.4,1.3-1.9,3.3-1.5,5.3C15,282.5,14.6,280.5,14.4,278.5z"/>
	<path class="st7" d="M12.8,309.8c-0.6-0.6-1.1-1.3-1.7-1.9c0,0-0.4,0.4-0.4,0.4c0.6,0.6,1.3,1.2,1.9,1.8
		C12.5,310,12.8,309.8,12.8,309.8z"/>
	<path class="st7" d="M49.6,256.4c-0.6-0.8-1.3-1.7-1.9-2.5C48.3,254.7,48.9,255.6,49.6,256.4z"/>
	<path class="st7" d="M10.8,289.6c-0.1,0.6-0.1,1.1-0.1,1.7C12.4,290.9,12.1,290.3,10.8,289.6z"/>
	<path class="st13" d="M78.8,245.3c-10.4,9-18.9,1.7-27.4-3.6c-2.3-1.4-4.7-2.9-6.3-0.6c-1.6,2.2,1.4,4.1,2.2,6.2
		c1.3,3.1,7.7,2,5.7,7.4c1.9,2.5,3.8,5.1,5.7,7.6c1.8,0,3.6,0,5.4,0c3.7,0.2,7.7-1.6,10.9,1.6c2.1,0,4.3-0.5,5.6,1.8c0,0,0,0,0,0
		c3.1-0.5,7.3,1.6,9.1-2.3c1.9-4.1,4.6-3.8,8.1-3.2c3.6,0.6,5.9,2.3,6.2,6.9c6.9-10,6.9-9.9-3.6-12.1c-6.5-1.3-13-2.7-19.5-4.1
		c-3.3-0.7-3.7-2.6-2.2-5.4L78.8,245.3z"/>
	<path class="st2" d="M16.7,320.6c-0.4-0.2-0.8-0.4-1.2-0.6c0.2,0.4,0.5,0.8,0.7,1.2C16.1,321.2,16.7,320.6,16.7,320.6z"/>
	<path class="st3" d="M60.4,350.6c0.9,4.1,4.2,4.8,7.6,5.3C68.2,350.1,64.4,350.3,60.4,350.6z"/>
	<path class="st7" d="M104.3,352.5c0.2-0.7,0.3-1.4,0.5-2.1c-3,0.1-6.8-1.6-7.4,3.6C99.8,353.6,102,353.1,104.3,352.5z"/>
	<path class="st5" d="M64.2,179.1c-1.5-0.3-3.3-0.5-3.2-2.5c0.2-4.6,5.1-2.2,6.9-4.5c0,0-0.8-0.3-0.8-0.3c-2.6,0.2-2.8-1.6-2.7-3.5
		c-5.7-5.7-6.8,1-9.5,3.5c3.7,6.1-4.5,9.2-3.7,14.6c0.5,5.2,3.7,11.6-5.4,12.9c1.8,5.9,3.8,11.1,12,8.2c2.7-1,6,0.8,6.1,3.9
		c0.3,9.2,5.6,4.9,10.4,4c-5.8-1.5-8.5-4-4.4-9.2C63.8,198,64,188.6,64.2,179.1z"/>
	<path class="st3" d="M45.9,199.3c9-1.3,5.8-7.7,5.4-12.9c-1.2,0-2.3,0-3.5,0c-0.7,0.6-1.3,1.2-2,1.8c0,0,0-0.1,0-0.1
		C45.8,191.9,45.8,195.6,45.9,199.3z"/>
	<path class="st14" d="M45.8,188.3c0.7-0.6,1.3-1.2,2-1.8C47.1,187,46.4,187.7,45.8,188.3z"/>
	<path class="st13" d="M32.7,234.3c3.9,0,5.9,2.6,7.5,5.6c0,0,0,0,0,0c0.6,0,1.3-0.1,1.9-0.1c3.1-3.9-2.7-5.4-2.3-8.7
		c4.8-1.8,8.5,6.7,13.5,1.4c0.6-1.3,1.3-2.6,1.9-3.9c-3.1-1.7-5.1-5.2-9-5.6c-3.7,0.4-6.5-2.2-9.7-3.4
		C32.5,223.8,28.6,228,32.7,234.3z M33.6,228.3c0.5-0.2,1.2-0.7,1.5-0.6c0.4,0.1,0.5,1,0.7,1.5c-0.5,0.2-1.2,0.7-1.5,0.6
		C34,229.7,33.8,228.9,33.6,228.3z"/>
	<path class="st10" d="M80.3,158.9c-1.8,3.7-4.3,7.5,0.7,10.7c1.1-1.6,2.4-4.5,3.3-4.4c3.5,0.4,1.6,3.6,2,5.7c0.2,0.9,0,1.8,0,2.6
		c2.8-0.8,0.8-4.8,3.7-5.5c3.3-2.6,3.4,0,3.7,2.2c1.2-0.1,2.3-0.1,3.5-0.2c4.9,0.3,5.4,4.2,5.7,7.7c0.4,4.7,0.1,9.5,0.1,14.3
		c0.5,0.6,1,1.2,1.4,1.7c-0.3,0.2-0.7,0.4-1,0.6c-0.1-0.8-0.3-1.6-0.4-2.3c-2,1-2.6,3.9-5.3,3.8c-2.8,0.4-3.8-1.2-4.1-3.7
		c-1.2,0-2.4,0-3.6,0c0.4,2.7-2.9,6.6,3,7.5c3.8,0.6,2.2,4.3,2.9,6.7c7.2-0.5,10.9-8.1,18.1-8.8c-2.3-7.5,2.1-12.3,7.1-16.8
		c0-4.6-4.1-8.1-3.1-12.9c-1.2,0-2.4-0.1-3.5-0.1c-0.7,0.2-1.5,0.3-2.2,0.5c0,1.8,0.1,3.7,0.1,5.5c0,2.8,0.2,5.5-0.2,8.3
		c-0.4,2.9,0,9.4-3.9,6.5c-3.3-2.5-2.5-10.2,0.5-15.3c0.4-1.9-3.1-5.1,1.9-5.3c-0.2-1-0.5-2.1-0.7-3.1c1.7,0.3,3.3,0.5,5,0.8
		c3.1-1.6,3.4,0,2.9,2.5c1.4-0.3,2.7-0.7,4.1-1c0.5-1.5,1-3,1.5-4.5c-1.4-4,2.3-7.3,1.5-11.2c-0.5,0-1-0.1-1.5-0.4
		c-2.3,0.2-4.5,0.3-6.8,0.5c-2,2.3-3,5.2-4.4,7.9c-1.8,3.5-5.2,5.6-7.2-0.4l0.1,0.1c-3.1-0.3-3.5,2-3.9,4.2
		c-0.6-0.2-1.1-0.4-1.7-0.6l0.1,0.1c-1.4-0.2-3.1,0.1-3.6-1.8c-0.6,0-1.3,0-1.9-0.1c-0.5,1.2-1.4,2.1-2.7,1.3
		c-1.6-1-0.8-2.5-0.4-3.9C87.2,158.4,83.7,158.6,80.3,158.9z M118.1,157.8c0.2,0.5,0.7,1.1,0.6,1.4c-0.1,0.4-0.9,0.5-1.4,0.7
		c-0.2-0.5-0.7-1.1-0.6-1.4C116.9,158.1,117.6,158,118.1,157.8z"/>
	<path class="st13" d="M78.9,241.5c0,1.3,0,2.6-0.1,3.8c0,0,0.1,0.1,0.1,0.1c11,4.3,22.8,2.7,34.1,4.3c1.1,0.2,2.7-1.1,3.2,0.8
		c2.3,9.2,10.8,5.2,16.2,7.6c-0.1-0.6-0.1-1.1-0.1-1.7c0.6-0.6,1.2-1.1,1.8-1.7c2-2.8,5-1.6,7.6-2c-1.8-3.9-5.3-4.6-9-5
		c-13.3-1.3-26.3-4.3-39.3-7.5C88.5,239,83.5,238.4,78.9,241.5z"/>
	<path class="st12" d="M137.7,172.1c5.7,1.9,12.3,5.8,12-5.6c-0.1-1.9,1.6-3.8,2.4-5.7c-4.1-0.9-12.3,2.8-7.8-7.3
		c0.5-1.2-1.2-2.1-2.4-2c-7.4,0.6-4.2-4.4-4.1-7.7c-4.4,0.6-6.2-3.1-8.8-5.4c-1.2-0.1-1.9-0.7-2-1.8c-2.3,0.3-2.2,2.2-2.6,3.8
		c6.6,7.4,10.7,15.6,8,25.9C133.7,168.6,138.5,167.8,137.7,172.1z"/>
	<path class="st11" d="M120.8,180.8c-5,4.5-9.3,9.3-7.1,16.8c4.1,9-1.2,10.1-9,9.3c1.8,4.9,2.9,9.3,9.1,7.8c4.1-0.9,2.2,1.5,1.7,3.1
		l0.8,0.2c0,0,0.8,0,0.8,0c1.6-0.2,3.1-0.4,4.7-0.6c-0.6-4.2-1.1-8.4,0.6-12.6c2.3-5.5,3-11.4-0.6-16.3
		C119.8,185.6,121.8,183.2,120.8,180.8z"/>
	<path class="st5" d="M189.6,166.1c0-7,0.5-14,0-21c-0.6-8.2-2.2-16.4-8.6-22.5c-1.3,16.6,1.6,33.1,2.2,50.1
		C186.7,171.9,187.8,168.6,189.6,166.1z"/>
	<path class="st12" d="M254,252.8c-2.5-0.2-4.9-0.4-7.4-0.5c-1.2,0.1-2.3,0.2-3.5,0.4c-1.9,0-3.8,0-5.7,0.1c0,0,0,0,0,0
		c1.1,4.3,2.5,8.6,1.8,13.1c0,4.8,0,9.6,0,14.4c0,0.7,0,1.4,0,2c1.1,7.1,6.5-3.2,8.1,2c2.3-1.1,1-3.1,1.3-4.7
		c1.2-7.7-2.4-15.7,1.7-23.1C251.5,255.3,252.8,254.1,254,252.8z"/>
	<path class="st11" d="M95.7,206.4c-0.6-2.4,0.9-6.2-2.9-6.7c-5.9-0.9-2.5-4.8-2.9-7.5c0,0-0.8-0.2-0.8-0.2c-2.1,0-4.1-0.1-6.2-0.1
		c0,0.6,0.1,1.2,0.2,1.7c2.2,2.8,3.5,5.2-2,5c-2-0.1-3.9,0.7-5.9,1c0,1.1,0.1,2.3,0.1,3.4c-0.1,1.9-0.2,3.7-0.3,5.6
		C85.1,216.3,87.7,216,95.7,206.4z"/>
	<path class="st5" d="M183.9,221.5c-4.9,0-9.7,0-14.6,0c-1.6,0-3.1,0.7-3.3,2.5c-0.1,1.8,1.2,2.6,2.9,2.8c9,1,17.9,2.4,27,2.9
		c2.4,0.1,6.6-0.4,6.2-5c-0.4-4-3.7-3.2-6.3-3.3C191.8,221.4,187.9,221.5,183.9,221.5C183.9,221.5,183.9,221.5,183.9,221.5z"/>
	<path class="st11" d="M137.8,143.8c0,3.3-3.3,8.3,4.1,7.7c1.2-0.1,3,0.7,2.4,2c-4.5,10.1,3.7,6.5,7.8,7.3c0.2-0.7,0.3-1.3,0.5-2
		c-0.3-2.1-0.4-4.2,1.3-5.8c0.3-3,0.6-6,0.9-9c-0.3-0.5-0.4-1.1-0.2-1.7c-0.3-0.4-0.4-0.8-0.4-1.3c-1.2-0.2-2.3-0.4-3.5-0.6
		c-4.6,0.3-5.5,14.1-13,3.6L137.8,143.8z"/>
	<path class="st11" d="M64.2,179.1c-0.2,9.5-0.4,18.9,5.7,27.1c0,0,0.8,0.1,0.8,0.1s0.8,0,0.8,0c0-1.1,0-2.3,0-3.4
		c-1.4-2.4-1-3.8,2.1-3.7c-0.7-1.2-1.3-2.3-2-3.5c-2.6-2.3-4.6-4.6-2.4-8.5c1.6-3,3.5-1.4,5.4-1c-0.7-2.6,0-5.7-2.6-7.6
		c-0.9,0-1.8-0.1-2.7-0.1C67.6,178.7,65.9,178.9,64.2,179.1z"/>
	<path class="st11" d="M140.3,195.5c-2.9,6.1-3.4,12.6-2.3,19.2c0.6,0.3,1.2,0.7,1.8,1c6.9-2.6,8.3-10.9,3.3-20.1
		C142.2,195.6,141.2,195.5,140.3,195.5z"/>
	<path class="st13" d="M121.9,217.3c-1.6,0.2-3.1,0.4-4.7,0.6c7.8,9.1,7.8,9.1,18.1-4.9c-1.6-0.2-3.2-0.5-4.9-0.7
		C127.6,214,124.7,215.6,121.9,217.3z"/>
	<path class="st11" d="M176.4,251.2c-9.8-0.2-19.8-2.9-29.4,1.8c0.1,0.5,0.2,1,0.2,1.6c1.2,0,2.3,0,3.5,0c7.3,0,14.7-0.1,22-0.1
		c1-1.6,2.7-1.6,4.3-1.9C176.8,252.1,176.6,251.7,176.4,251.2z"/>
	<path class="st13" d="M137.7,172.1c0.8-4.3-4-3.5-5.3-5.9c-3.4-0.5-4.3-7.1-9.3-3.8c-0.5,1.5-1,3-1.5,4.5c3.6,1.4,7.6,2.2,9,6.6
		l-0.1-0.1C132.9,173.1,135.3,172.6,137.7,172.1z"/>
	<path class="st10" d="M177.1,252.6c-1.6,0.3-3.3,0.3-4.3,1.9c1.4,0.1,2.7,0.1,4.1,0.2c13.4,0,26.8-0.1,40.3-0.1l-0.1,0
		c0-0.6,0-1.2-0.1-1.8c-0.5-0.2-1.1-0.3-1.7-0.4C202.5,252.5,189.8,252.5,177.1,252.6z"/>
	<path class="st7" d="M177.1,252.6c12.7,0,25.5-0.1,38.2-0.1c-12.9-3-25.9-0.9-38.8-1.2C176.6,251.7,176.8,252.1,177.1,252.6z"/>
	<path class="st7" d="M237.6,251.3c-6.2,0-12.6-2.2-18.6,1.5c0,0.7-0.1,1.3-0.1,2c5.7,1.3,10.7-3.5,16.5-1.7c0.7-0.1,1.3-0.2,2-0.3
		c0,0,0,0,0,0C237.4,252.3,237.5,251.8,237.6,251.3z"/>
	<path class="st11" d="M55.2,228.6c-0.6,1.3-1.3,2.6-1.9,3.9c1.8,2.3,4.5,3.2,7.2,3.6c0.9-1.5,2.3-1.7,3.8-1.8
		C61.3,232.4,58.3,230.5,55.2,228.6z"/>
	<path class="st13" d="M64.3,234.3c-1.5,0.1-2.9,0.3-3.8,1.8c2.5,3.2,5.5,4.2,9.2,1.9c0-0.5,0-1-0.1-1.5
		C67.9,235.8,66.1,235,64.3,234.3z"/>
	<path class="st13" d="M140.3,195.5c0.9,0,1.8,0,2.8,0c7.1-6.2-2-4.9-3.4-7.1c0,1.8-0.6,3.3-2.4,4
		C138.3,193.5,139.3,194.5,140.3,195.5z"/>
	<path class="st1" d="M132,178.1c-1.7,1.2-1.7,2.9-1.6,4.7c1.3,1.1,2.5,2.2,3.8,3.3c1,0,2,0,3.1,0c-0.1-0.6,0-1.2,0.5-1.7
		c0-1,0-2.1,0.1-3.1C135.4,181,132.7,181.4,132,178.1z"/>
	<path class="st3" d="M159.8,133.2c0,3.8-4.7,0.6-5.3,3.5c0,0.6,0.1,1.2,0.2,1.8c3.6,1.3,6.7,0.2,8.2-3.1
		C163.5,133.6,161.3,133.3,159.8,133.2z"/>
	<path class="st7" d="M134.2,186.1c-1.3-1.1-2.5-2.2-3.8-3.3c-2.6,2.5-2.5,4.9,0.3,7.2C131.9,188.7,133.1,187.4,134.2,186.1z"/>
	<path class="st12" d="M134.2,186.1c-1.2,1.3-2.3,2.6-3.5,3.9c0.9,0.3,1.9,0.6,2.8,0.8c1.2-0.4,2,0.1,2.5,1.2
		c0.3,0.3,0.7,0.5,1.2,0.4c1.9-0.7,2.4-2.2,2.4-4c0,0-0.1-0.1-0.1-0.1c-0.8-0.8-1.5-1.5-2.3-2.3
		C136.3,186.1,135.3,186.1,134.2,186.1z"/>
	<path class="st5" d="M253.7,236.5c-3.5,0-6.9,0-10.4,0c0,0.3,0,0.6,0,0.9c3.4,0,6.8,0,10.3,0C253.6,237.1,253.7,236.8,253.7,236.5z
		"/>
	<path class="st12" d="M147.3,254.6c0-0.5-0.1-1-0.3-1.6c-1.7-0.1-3.5-0.3-5.2-0.4c-2.6,0.4-5.6-0.9-7.6,2c3.1,0,6.1,0,9.2,0
		C144.7,254.6,146,254.6,147.3,254.6z"/>
	<path class="st2" d="M154,153c-1.7,1.6-1.6,3.7-1.3,5.8C157.1,157.8,157.4,155.8,154,153z"/>
	<path class="st7" d="M71.6,202.8c0,1.1,0,2.3,0,3.4c0.6,1.7,1.9,2.3,3.5,2.3c0.1-1.9,0.2-3.7,0.2-5.6C74,203,72.8,202.9,71.6,202.8
		z"/>
	<path class="st3" d="M149.4,123.8c0.7,2.6,2.7,3.4,5.1,3.6C154.5,123.8,152,123.7,149.4,123.8z"/>
	<path class="st11" d="M69.7,236.5c0,0.5,0.1,1,0.1,1.5c1.4,0.1,2.9,0.2,3.6,1.8c1.3-0.3,2.3-1,1.6-2.3
		C73.8,235.1,71.6,236.3,69.7,236.5z"/>
	<path class="st12" d="M132,178.1c0.7,3.4,3.4,2.9,5.8,3.2C136.7,178.7,135.6,176.2,132,178.1z"/>
	<path class="st2" d="M154.6,138.5c-0.1-0.6-0.1-1.2-0.2-1.8c-1.5,0.1-3.3-0.3-4.2,1.6c0.2,0.7,0.4,1.5,0.6,2.2
		c1.2,0.2,2.3,0.4,3.5,0.6C154.4,140.2,154.5,139.3,154.6,138.5z"/>
	<path class="st11" d="M129.6,194.5c1,0.5,1.3,0.9,1.7,0.9c0.5,0.1,1.2,0.1,1.7-0.1c0.8-0.3,0.8-1,0-1.2
		C132.2,193.9,131.4,194.3,129.6,194.5z"/>
	<path class="st7" d="M115.6,217.7c0.5-1.6,2.4-4-1.7-3.1C114,216,114.2,217.2,115.6,217.7z"/>
	<path class="st13" d="M237.6,251.3c-0.1,0.5-0.2,1-0.2,1.4c1.9,0,3.8,0,5.7-0.1C241.6,250.8,239.5,251.4,237.6,251.3z"/>
	<path class="st13" d="M137.3,186.1c0.8,0.8,1.5,1.5,2.3,2.3c-0.4-1.4,0.7-3.5-1.8-4C137.3,184.9,137.2,185.4,137.3,186.1z"/>
	<path class="st12" d="M130.4,212.3c1.6,0.2,3.2,0.5,4.9,0.7c0,0,0.4-0.5,0.4-0.5c-0.5-0.7-0.9-1.4-1.4-2.1
		C132.5,210.1,130.8,209.9,130.4,212.3z"/>
	<path class="st11" d="M134.2,210.4c0.5,0.7,0.9,1.4,1.4,2.1C136.8,210.7,135.5,210.6,134.2,210.4z"/>
	<path class="st11" d="M218.9,254.7c0-0.7,0.1-1.3,0.1-2c-0.7,0-1.4,0-2.1,0c0.1,0.6,0.2,1.2,0.1,1.8
		C217.7,254.7,218.3,254.8,218.9,254.7z"/>
	<path class="st11" d="M136.1,192c-0.5-1.1-1.3-1.6-2.5-1.2C134.4,191.2,135.3,191.6,136.1,192z"/>
	<path class="st2" d="M154.7,142.3c-0.1,0.6-0.1,1.1,0.2,1.7c0.1-0.4,0.3-0.8,0.4-1.3C155.3,142.6,154.9,142.4,154.7,142.3z"/>
	<path class="st13" d="M130.7,173.7c-0.3,0.2-0.6,0.3-1,0.5c0.1,0,0.3,0.1,0.4,0c0.2-0.2,0.3-0.4,0.4-0.6
		C130.5,173.5,130.7,173.7,130.7,173.7z"/>
	<path class="st7" d="M139.7,215.7c-0.6-0.3-1.2-0.7-1.8-1C138.6,215,139.2,215.4,139.7,215.7z"/>
	<path class="st5" d="M147.1,120c-0.4,0.4-0.9,0.8-1.3,1.2c0.5,0.1,0.9,0.1,1.4,0.2C147.2,120.9,147.2,120.4,147.1,120z"/>
	<path class="st8" d="M443.7,125.7c-1.1-5.2-5.2-5.3-9.2-5.5C435.6,125.3,440.3,124.4,443.7,125.7z"/>
	<path class="st9" d="M267.1,295.7c-1.9-0.1-3.7-0.2-5.6-0.3c-0.9,5.8-2.6,11.6-6.4,15.8c-8.6,9.2-13.7,20.8-21.8,30.3
		c-1.7,1.9-0.1,3.4,0.4,5c1.2,0,2.3,0,3.5,0c0.6-2.4,1.2-4.5,3.8-1.5c1.5,0,2.9-0.2,3.7-1.6c7.7-9.6,16.6-18,25.5-26.3
		c-1-1.9-4.2-2.3-3.6-5.3c-2.2-0.3-3.3-1.1-2.5-3.7C265.3,304,266.2,299.9,267.1,295.7z"/>
	<path class="st7" d="M233.7,346.5c-0.4-1.6-2-3.1-0.4-5c8.1-9.5,13.2-21,21.8-30.3c3.8-4.1,5.5-10,6.4-15.8c-1.9,0-3.7-0.1-5.6-0.1
		c0,2.9-0.2,5-2,8.2c-5.3,9.7-14.5,16.4-18.4,27.3c-2.4,6.7-8.2,12.7-16.4,14.2c-0.1,0.6-0.1,1.1-0.2,1.7c0,0.6,0,1.2,0,1.8
		C223.9,347.8,229.3,350.6,233.7,346.5z"/>
	<path class="st10" d="M270.3,317.1c-8.9,8.4-17.8,16.8-25.5,26.3c6.8-0.4,12.8-4.7,19.7-4.3c0.8-1.1,1.6-2.2,2.4-3.3
		c-0.6-0.2-1.2-0.4-1.7-0.6c-1-0.3-2.9-0.3-3-0.8c-0.5-2,1.3-2.1,2.7-2.4l0,0c2.5-4.3,5-8.5,7.5-12.8
		C271.7,318.4,271,317.8,270.3,317.1z"/>
	<path class="st3" d="M219,348.5c0-0.6,0-1.2,0-1.8c-2.2,0.1-4.3,0.6-4.8,3.2c-0.1,0.4,0.4,1.3,0.7,1.4
		C217.3,351.9,218.1,350.2,219,348.5z"/>
	<path class="st7" d="M241.1,345c-2.6-3-3.3-0.9-3.8,1.5C238.8,346.7,240.2,346.6,241.1,345z"/>
	<path class="st11" d="M132.5,258c-5.4-2.4-13.8,1.7-16.2-7.6c-0.5-1.9-2.1-0.6-3.2-0.8c-11.4-1.6-23.1,0-34.1-4.3
		c-1.6,2.7-1.1,4.6,2.2,5.4c6.5,1.4,13,2.8,19.5,4.1c10.4,2.2,10.4,2.1,3.6,12.1c-0.3-4.5-2.7-6.3-6.2-6.9c-3.5-0.6-6.2-0.9-8.1,3.2
		c-1.8,3.9-6,1.8-9.1,2.3c17.4,7.9,36.1,10.3,54.7,12.8c7.2,1,14.4,2.8,21.8,2c2.4-0.3,4.1,0.9,4.4,3.5c4.4,0.4,8.9,0.9,13.3,1.3
		c6.6-4,13.3-4.7,20.2-0.9c1.1-0.1,2.1-0.2,3.2-0.4c-0.4-4.9-4.2-3.5-7-3.6c-7.3-0.2-14.5-0.1-21.8-0.1c0-0.6,0-1.2,0.1-1.8
		c19.5,0,39.1,0,58.6,0c0-0.7-0.1-1.4-0.1-2.1c-14.4,0-28.8-0.1-43.1,0.1c-7,0.1-13.8-2.3-20.9-2c-5.4,0.2-10.1-1.4-15.4-4.6
		c-6.1-3.7-15.6-4.3-22.8-2.7c-5.4,1.2-4.9-3.4-7.7-3.7c1-3.6,3.9-3.3,6.7-3.4c1.2,0,2.5-0.1,3.7,0.1c32.9,5.5,66.1,6,99.4,5.2
		c-0.3-4.6-3.1-2.9-5.9-2.7c-14.1,1.2-28.1,2-41.9-3c15.4,0,30.8,0,46.2,0c-25.1-5.2-50.6,3.8-75.5-3.6c-3.4-0.4-5.7,3.6-9.3,2.2
		C138.6,258.4,135.6,258.2,132.5,258z M147.1,276.7c-4.2,0-8.5,0-12.7,0C138.7,275.9,143.2,273.3,147.1,276.7c3.6,0,7.2,0,10.8,0
		C154.3,278.1,150.5,279.8,147.1,276.7z"/>
	<path class="st13" d="M254,252.8c-1.2,1.2-2.4,2.4-3.7,3.7c0.5,0,0.9,0,1.4,0c4,7.9,3.4,15.9,0.3,24c-0.6,4.5,2,5.6,5.8,5.6
		c3.6,0,7.3-0.1,10.9-0.1c0.1-0.5,0.3-0.9,0.4-1.3c-1.4-2.8-4-2.3-6.4-2.6c-2.3-0.2-3.1-1.7-3-3.8c0.1-2.3,1.7-3.6,3.6-3.1
		c7.8,2.1,16.1-3,23.7,1.6c6.3-0.2,12.5-0.7,18.8-1.2c5.9-0.5,11.9-5,18-0.6c5.8,1.3,11-3.5,16.9-1.5c2.3-1.1,5.2,0.1,7.1-2.2
		c0.3-4-4.2-3.1-5.5-5.5c-11-0.4-21.3,4.7-32.1,4.6c-7.6,0-15.5,7.2-22.8-0.7c-6.9-0.1-13.7-0.3-20.6-0.2c-4.4,0.1-6-1.9-5.3-6.1
		c-0.2-2.7,0.3-4.7,3.8-4.8c5.5-0.2,10.9-0.3,16.1,2c1-1.8,3-1.7,4.6-2.3c8.7-3.1,18.7,0.2,26.8-5.5c3.5-1.5,4-3.8,1.9-6.8
		c-7.7,4.8-16.3,0.9-24.6,2.7C278.5,251.2,266.1,251.5,254,252.8z"/>
	<path class="st12" d="M150.9,256.3c24.9,7.4,50.5-1.6,75.5,3.6c-15.4,0-30.8,0-46.2,0c13.8,5,27.9,4.2,41.9,3
		c2.8-0.2,5.6-1.9,5.9,2.7c0.1,3.6,0.1,7.3,0.2,10.9c0,0.7,0.1,1.4,0.1,2.1c3.4,5.5-1,5.2-4.3,5.7c0.1,0.4,0.1,0.9-0.1,1.3
		c3.5-1.3,5.6,5.1,9.5,1.7c0.1-1.6,0.3-3.2,0.4-4.8c-0.6-9.9,0-19.7,1.4-29.5c-5.7-1.8-10.8,3-16.5,1.7c-0.6,0-1.2,0-1.8-0.1
		c0,0,0.1,0,0.1,0c-13.4,3.1-26.8,2.7-40.3,0.1c-1.4-0.1-2.7-0.1-4.1-0.2c-7.3,0-14.7,0.1-22,0.1
		C150.8,255.2,150.9,255.7,150.9,256.3z"/>
	<path class="st6" d="M270.3,317.1c0.7,0.7,1.4,1.3,2.1,2c0.6,0,1.2,0,1.9,0.1c0,0,0,0,0,0c0-1.5,0.3-2.9,1.7-3.7
		c-0.6-4.9,3.3-8.3,4-12.7c-1.7-6.6,7.5-9.6,5.3-16.3c-5.1,0.1-10,1.5-14.5,3.9c-0.2,1-0.5,1.9-0.7,2.9c6.9,7.7-2.6,12.3-3.5,18.6
		C266.1,314.8,269.4,315.1,270.3,317.1z"/>
	<path class="st3" d="M270.9,290.3c4.5-2.5,9.3-3.8,14.5-3.9c1.8-0.2,3.6-0.4,5.5-0.5c5.8-3.8,13.7-1.7,19.1-6.7
		c-7.4,3.7-15.2-1.5-22.7,0.9c-1.7,0.3-3.3,0.6-5,0.9c-4.2,1.9-8.2,4.1-13,3.7c-0.2,0.4-0.3,0.9-0.4,1.3
		C270.4,287,270.6,288.7,270.9,290.3z"/>
	<path class="st11" d="M234,282.5c-0.1,1.6-0.3,3.2-0.4,4.8c8.1,0,16.3,1.1,24.3-1.3c-3.8,0-6.4-1.1-5.8-5.6c-0.1-8-0.2-16-0.3-24
		c-0.5,0-0.9,0-1.4,0c-4.2,7.4-0.6,15.5-1.7,23.1c-0.2,1.6,1,3.6-1.3,4.7c-1.6-5.2-7,5.1-8.1-2C237.5,282.4,235.7,282.4,234,282.5z"
		/>
	<path class="st10" d="M266.7,311.8c0.9-6.2,10.4-10.9,3.5-18.6c-1,0.8-2,1.7-3,2.5c-1,4.1-1.8,8.3-3,12.4
		C263.4,310.7,264.5,311.5,266.7,311.8z"/>
	<path class="st13" d="M195.3,284.4c-6.9-3.8-13.6-3.1-20.2,0.9c6.8,0.1,13.7,0.3,20.5,0.4C195.4,285.3,195.3,284.9,195.3,284.4z"/>
	<path class="st6" d="M195.3,284.4c0,0.4,0.1,0.9,0.3,1.3c9.5,0,19,0,28.5,0c0.1-0.4,0.2-0.9,0.1-1.3c-8.5-0.1-17.1-0.2-25.6-0.3
		C197.4,284.2,196.4,284.3,195.3,284.4z"/>
	<path class="st11" d="M80.8,265.7c-1.3-2.3-3.6-1.8-5.6-1.8c-0.3,0.6-0.3,1.1-0.1,1.7C77,265.6,78.9,265.6,80.8,265.7z"/>
	<path class="st2" d="M74.9,267.6c-0.5,0.4-1,0.8-1.6,1.2c1,0,1.9,0.1,2.9,0.1c-0.3-0.4-0.6-0.9-0.7-1.4L74.9,267.6z"/>
	<path class="st11" d="M75.5,267.4c0.1,0.5,0.4,1,0.7,1.4c0.3-0.1,0.7-0.3,0.9-0.6C76.6,268,76.1,267.7,75.5,267.4z"/>
	<path class="st3" d="M314.7,245.3c2.4,0.1,4.9,0.2,7.3,0.3c-0.5-1.8,2.3-4.6-0.4-5.2C318.5,239.7,315.4,241.4,314.7,245.3z"/>
	<path class="st11" d="M287.5,269.7c7.3,7.9,15.2,0.7,22.8,0.7c10.8,0.1,21.1-5.1,32.1-4.6c18-3.7,36.1-7.3,54-11.3
		c4.3-1,9.1-1.5,12.2-5.3c-19.6,4-39.2,8.3-58.9,12c-12.2,2.3-24.5,4.9-37,5.1c-3.7,0.9-7.4,1.9-11.1,2.8
		C296.9,269.2,292.2,269.4,287.5,269.7z"/>
	<path class="st11" d="M313,252.7c-8.1,5.7-18.1,2.4-26.8,5.5c-1.7,0.6-3.6,0.4-4.6,2.3c0.1,0.4,0.3,0.8,0.5,1.1
		c20.8-2.1,41.5-5.3,62.1-8.9c0.1-0.7,0.1-1.5,0.2-2.2C333.8,250.3,323.6,254,313,252.7z"/>
	<path class="st13" d="M301.7,269c3.7-0.9,7.4-1.9,11.1-2.8c7.7-5.9,17.4-3.6,26-6c1.6-0.5,3.7,0.2,4.8-2.5
		c-13.7-0.1-26.4,4.6-39.6,4.6C298,262.2,302.4,266.7,301.7,269z"/>
	<path class="st13" d="M415.8,239.9c3.7-0.4,4-2.8,3.5-5.8c-12.5,2.7-25.2,4.4-36.9,10.2C393.7,243.5,404.5,239.7,415.8,239.9z"/>
	<path class="st13" d="M344.4,250.5c-0.1,0.7-0.1,1.5-0.2,2.2c11.3-2,22.7-4,34-6c-0.1-1-0.3-2.1-0.4-3.1
		C366.7,246.6,355.2,245.8,344.4,250.5z"/>
	<path class="st6" d="M282.1,261.6c-0.2-0.4-0.4-0.7-0.5-1.1c-5.2-2.3-10.6-2.2-16.1-2c-3.5,0.1-4,2.1-3.8,4.8
		C268.7,265.5,275.6,266.6,282.1,261.6z"/>
	<path class="st13" d="M349.8,258.6c9.9-2,19.7-4,29.6-6c-10.6-2.7-19.9,2.3-29.9,2.7C349.5,256.4,349.6,257.5,349.8,258.6z"/>
	<path class="st11" d="M427.7,233.1c1.2-0.7,4.3,0.5,3.3-2c-0.6-1.5-3.1-0.4-4.4,1C427,232.4,427.4,232.7,427.7,233.1z"/>
	<path class="st11" d="M426.7,232.1c-0.6,0.6-1.1,1.3-1.7,1.9c0.3,0.3,0.6,0.6,0.9,0.9c0.6-0.6,1.3-1.2,1.9-1.8
		C427.4,232.7,427,232.4,426.7,232.1z"/>
	<path class="st10" d="M117.7,112.8c-7.6-1.1-8.8,6.5-13.2,9.7c1.2,3,1.3,6.9,6,6.7c0.2-0.1,0.4-0.2,0.6-0.4
		c-0.2,0.1-0.4,0.2-0.7,0.3c-1.9,2.8-4.8,1.8-7.3,2c2.4,3.1-0.2,6.3,0.3,9.4c2.3,2.4,4.5,4.9,6.8,7.3c1.8,1.9,3.1,1.3,3.9-0.9
		c-1.6-6.4-2-12.6,1.7-18.5c3.4-2.9-5.8-7.9,1.6-10.1C117.6,116.4,117.6,114.6,117.7,112.8z"/>
	<path class="st7" d="M129,138.4c2.6,2.3,4.4,6,8.8,5.4c0,0,0,0.2,0,0.2c2-3.7,4.5-6.9,9.1-7.5c-4.6-7.1-14.5-11-21.7-8.4
		c-1.3,0.5-2.6,1.1-4,1.6c0.1,1.5-0.3,2.7-1.6,3.5c1,3.7,2.1,7.3,3.1,11c0.5-1.3,1.1-2.5,1.6-3.8c0.4-1.6,0.3-3.5,2.6-3.8
		c0.4-0.2,0.8-0.3,1.3-0.3c0.4-0.3,1-1,1.2-0.9c1,0.7,0.4,1.3-0.3,1.8C129.2,137.6,129.2,138,129,138.4z M126.7,131.1
		c0.6,0.7,1.2,1.3,1.1,1.4c-0.5,0.6-1.1,1.1-1.7,1.7c-0.3-0.4-0.9-1-0.8-1.2C125.6,132.3,126.2,131.8,126.7,131.1z"/>
	<path class="st1" d="M121.3,129.6c1.3-0.5,2.6-1.1,4-1.6c-0.3-3.2-1-6.5,3.3-8.1c-3.8-2.8-7.6-1-11-1.7c-7.5,2.3,1.8,7.2-1.6,10.1
		c1.5-0.7,2.7-0.8,3.6,0.9C120.1,129.3,120.7,129.4,121.3,129.6z"/>
	<path class="st12" d="M146.9,136.5c-4.6,0.6-7,3.8-9.1,7.5c7.6,10.5,8.4-3.3,13-3.6c-0.2-0.7-0.4-1.5-0.6-2.2
		C149.2,137.6,148,137,146.9,136.5z"/>
	<path class="st1" d="M121.4,114.2c0.2-0.2,0.4-0.3,0.6-0.5c-0.2-0.1-0.5-0.4-0.7-0.3c-0.2,0-0.4,0.3-0.6,0.5
		C120.9,113.9,121.2,114,121.4,114.2z"/>
	<path class="st14" d="M89.5,127.7c-2-0.1-3.9-0.1-5.9-0.2c-0.2,0.4-0.5,0.7-0.8,1l0-0.1c1.2,2.8,2.5,5.6-0.6,8
		c-3,2.4-1.8,4.7,0.3,6.9c0.9-1.6,2.4-1.2,3.8-1c1.4-0.3,3.2,0.1,3.7-1.8C87.3,136.4,88.1,132.1,89.5,127.7z"/>
	<path class="st9" d="M86.4,142.3c-1.4-0.1-2.9-0.6-3.8,1c0,2-0.1,4-0.1,6c-1.5,2.2,6.8,9.3-3.6,7c-0.1,0.4-0.1,0.9,0,1.3
		c0.4,0.4,0.9,0.8,1.3,1.2c3.5-0.2,6.9-0.5,10.4-0.7c0.2-0.3,0.4-0.6,0.6-0.9c0.4-1.5,0.5-2.9-0.6-4.2c-0.8,0.1-1.6,0.2-2.5,0.3
		c-1.6-1.5-5-2.6-1.5-5.5C86.6,146,86.5,144.2,86.4,142.3z"/>
	<path class="st10" d="M78.9,156.4c10.4,2.3,2.1-4.8,3.6-7C78.1,150.1,79.1,153.5,78.9,156.4z"/>
	<path class="st11" d="M79.1,124.2c-0.1,1.1-0.2,2.2-0.3,3.3c0.9,0.1,1.9,0.3,2.8,0.4c0.4,0.2,0.8,0.5,1.2,0.7
		c0.3-0.3,0.5-0.6,0.8-1c-0.5-1.7-0.9-3.5-2.9-4.1C80.2,123.8,79.7,124,79.1,124.2z"/>
	<path class="st3" d="M82.9,128.6c-0.4-0.2-0.8-0.5-1.2-0.7c0,1.1,0.6,0.9,1.2,0.5C82.9,128.4,82.9,128.6,82.9,128.6z"/>
	<path class="st5" d="M74.6,186.2c-1.9-0.5-3.7-2-5.4,1c-2.1,3.9-0.2,6.2,2.4,8.5c3.8-0.7,7.6-1.4,11.4-2.1
		c-0.2-0.6-0.3-1.2-0.2-1.7c-0.4-1.4,0.5-1.8,1.6-2.1c0.6-0.5,1.2-1,1.9-1.4l-0.1-0.2c0-1.1,0.1-2.2,0.1-3.3
		c-3.2,0.2-4.8-2.7-7.3-3.8C79,183.9,79.2,187.1,74.6,186.2z"/>
	<path class="st7" d="M79.1,180.9c2.5,1.1,4.1,4,7.3,3.8c0-3.8,0-7.5,0-11.3c0-0.9,0.1-1.8,0-2.6c-0.4-2.1,1.4-5.3-2-5.7
		c-0.9-0.1-2.2,2.9-3.3,4.4c-0.6,3.1-1.3,6.2-1.9,9.4C79,179.6,79,180.2,79.1,180.9L79.1,180.9z"/>
	<path class="st14" d="M67.1,171.8c0,0,0.8,0.3,0.8,0.3c1.7,0.5,3.5,1,5.2,1.5c0.2-1.8,0.3-3.6,0.5-5.4c-0.1-0.6-0.1-1.1-0.1-1.7
		l-0.4-0.2c-0.8,0-1.6,0-2.4,0.1c-1.1,1.8-2.5,2.9-4.7,1.8c0,0,0.1-0.1,0.1-0.1C66.5,169.3,66.8,170.5,67.1,171.8z"/>
	<path class="st9" d="M73.6,168.1c-0.2,1.8-0.3,3.6-0.5,5.4c0.7,0,1.5,0,2.2,0l0,0C74.5,171.8,76,169.4,73.6,168.1z"/>
	<path class="st11" d="M67.1,171.8c-0.3-1.2-0.6-2.5-0.9-3.7c-0.6,0.1-1.2,0.2-1.8,0.3C64.3,170.2,64.5,172,67.1,171.8z"/>
	<path class="st11" d="M66,168.1c2.2,1.1,3.6,0,4.7-1.8C68.6,165.4,67.1,166.2,66,168.1z"/>
	<path class="st9" d="M69.3,178.5c0.9,0,1.8,0.1,2.7,0.1C71.2,176.3,70.3,176,69.3,178.5z"/>
	<path class="st9" d="M75.3,173.5c0.2,0.8,0.3,1.6,0.5,2.3C77.5,174.7,75.9,174.3,75.3,173.5C75.3,173.6,75.3,173.5,75.3,173.5z"/>
	<path class="st5" d="M79,180.9c0-0.6,0.1-1.3,0.1-1.9C77.9,179.5,77.5,180.1,79,180.9z"/>
	<path class="st9" d="M73.5,166.4c0.2-0.4,0.5-0.7,0.7-1.1c-0.4,0.3-0.7,0.6-1.1,0.9C73.1,166.2,73.5,166.4,73.5,166.4z"/>
	<path class="st10" d="M104.6,115.9c1.1,0.1,1.7-0.3,1.4-1.5C105.5,114.9,105,115.4,104.6,115.9z"/>
	<path class="st6" d="M110.5,129.2c-4.8,0.3-4.8-3.7-6-6.7c-5-0.7-9.2-2.6-10.9-7.9c-2.9,0.7-5.9,1.3-8.8,2c-0.2,0.4-0.2,0.9,0,1.3
		c3.1,2.6,9.1,1.8,9.5,7.7c1.2,1.1,2.4,2.2,3.6,3.3c0.4,0,0.7,0,1,0.1c1.8-0.3,3.4-0.1,4.2,1.9C105.7,130.9,108.6,131.9,110.5,129.2
		L110.5,129.2z"/>
	<path class="st1" d="M84.6,112.7c0.6,0.2,1.2,0.3,1.8,0.5c-0.1-1.2-0.6-2-1.9-2.3l0,0C84.5,111.5,84.5,112.1,84.6,112.7z"/>
	<path class="st1" d="M84.5,111c-0.2-0.3-0.5-0.6-0.7-0.9c0,0.2,0,0.4,0.1,0.5C84,110.7,84.3,110.8,84.5,111
		C84.5,110.9,84.5,111,84.5,111z"/>
	<path class="st9" d="M97.9,129.1c-1.2-1.1-2.4-2.2-3.6-3.3c-1.9-0.1-3.6,0.5-4.8,2c-1.4,4.3-2.2,8.6,0.6,12.8
		c1.2,0.6,2.3,1.2,3.5,1.9c3.7-3,4.8-6.8,3.9-11.4C97.7,130.3,97.8,129.7,97.9,129.1z"/>
	<path class="st5" d="M79.1,124.2c0.6-0.1,1.1-0.4,1.6-0.7c-0.5-0.5-1.1-0.9-1.6-1.4C79.1,122.7,79.1,123.4,79.1,124.2z"/>
	<path class="st12" d="M287.2,280.1c7.5-2.4,15.2,2.8,22.7-0.9c1.6,0.5,3.3,0.9,4.9,1.4c2.2-1.6,4.8-2,7.4-2.1
		c0.6-1.2,1.2-2.3,1.8-3.5c-6.1-4.4-12.1,0.2-18,0.6c-6.2,0.5-12.5,0.9-18.8,1.2c0,0.6,0,1.2,0,1.8
		C287.2,279.1,287.2,279.6,287.2,280.1z"/>
	<path class="st1" d="M290.8,285.9c-1.8,0.2-3.6,0.4-5.5,0.5c2.2,6.7-7,9.7-5.3,16.3c5.7-1.4,8.4-6.3,12-10.1
		C294.6,289.9,292.8,287.8,290.8,285.9z"/>
	<path class="st1" d="M322.2,278.4c-2.6,0.2-5.2,0.5-7.4,2.1c0.2,6.2,6.1,5.1,9.3,7.3c3.2-0.9-2.2-7.4,4.1-6.2
		C328.7,275.9,324.1,279.6,322.2,278.4z"/>
	<path class="st1" d="M274.3,319.2c-0.6,0-1.2,0-1.9-0.1c-2.5,4.3-5,8.5-7.5,12.8c1.9,0.1,3.9,0.2,5.8,0.2c0,0,0.1,0.2,0.1,0.2
		C269,327.2,275.4,324.1,274.3,319.2z"/>
	<path class="st1" d="M314.9,302.8c2.5-1.1,3.8-3,3.7-5.7C314.6,297.1,314.7,299.9,314.9,302.8z"/>
	<path class="st1" d="M276,315.4c-1.4,0.8-1.7,2.2-1.7,3.7C276.7,318.7,278.9,318.3,276,315.4z"/>
	<path class="st15" d="M270.8,332.1c-1.9-0.1-3.9-0.2-5.8-0.2c0,0,0,0,0,0c0.1,1.1,0.2,2.2,0.3,3.2c0.6,0.2,1.2,0.4,1.7,0.6
		c1.1-0.1,2.2-0.3,3.3-0.4C270.4,334.3,270.6,333.2,270.8,332.1z"/>
	<path class="st11" d="M42.2,239.8c-0.6,0-1.3,0.1-1.9,0.1C41,241.6,41.6,241.1,42.2,239.8z"/>
	<path class="st12" d="M33.6,228.3c0.2,0.5,0.3,1.3,0.7,1.5c0.4,0.1,1-0.4,1.5-0.6c-0.2-0.5-0.3-1.3-0.7-1.5
		C34.8,227.6,34.1,228.1,33.6,228.3z"/>
	<path class="st6" d="M114.2,146.9c-0.9,2.2-2.1,2.8-3.9,0.9c-2.3-2.4-4.5-4.8-6.8-7.3c0,3,0.3,6.3-4.4,5.9c-0.3,3,1.5,6.3-1.8,8.7
		c0,1.8,0,3.7,0.1,5.5c0.6,0.6,1.2,1.3,1.8,1.9c0,0-0.1-0.1-0.1-0.1c0.5,0.4,1,0.6,1.7,0.6c0.5-2.2,0.8-4.5,3.9-4.2
		c0.3-0.3,0.5-0.6,0.8-0.9c0,0.2,0,0.4-0.1,0.5c-0.2,0.2-0.5,0.2-0.7,0.3c2,6.1,5.4,3.9,7.2,0.4c1.4-2.7,2.4-5.6,4.4-7.9
		C115.6,149.8,114.9,148.4,114.2,146.9z"/>
	<path class="st11" d="M124.4,140.4c-0.5,1.3-1.1,2.5-1.6,3.8c0.2,0.7,0.3,1.3,0.4,2c1.7,1.4,1.7,3.3,1.4,5.2
		c0.8,3.9-2.9,7.2-1.5,11.2c4.9-3.3,5.9,3.2,9.3,3.8C135,156,131,147.8,124.4,140.4z"/>
	<path class="st14" d="M123.2,146.1c-0.1-0.6-0.3-1.3-0.4-2c-1-3.7-2.1-7.3-3.1-11c0-1.3-0.1-2.6-0.1-3.9c-0.9-1.7-2.2-1.6-3.6-0.9
		c-3.7,5.9-3.4,12.2-1.7,18.5c0.7,1.5,1.4,3,2.1,4.4c2.3-0.2,4.5-0.3,6.8-0.5C123.2,149.2,123.2,147.6,123.2,146.1z"/>
	<path class="st9" d="M97.6,195.8c2.8,0.1,3.4-2.8,5.3-3.8l0,0c0-4.8,0.3-9.5-0.1-14.3c-0.3-3.4-0.8-7.3-5.7-7.7
		C97.3,178.6,97.5,187.2,97.6,195.8z"/>
	<path class="st9" d="M89.1,192c0,0,0.8,0.2,0.8,0.2c1.2,0,2.4,0,3.6,0c0.1-7.3,0.2-14.6,0.3-21.9c-0.3-2.2-0.4-4.9-3.7-2.2
		c-0.1,6.2-0.1,12.4-0.2,18.6c0.1,0.5,0.1,1.1,0,1.6c-0.4,0.6-0.9,1.1-1.3,1.7C88.7,190.6,88.9,191.3,89.1,192z"/>
	<path class="st3" d="M93.7,170.2c-0.1,7.3-0.2,14.6-0.3,21.9c0.3,2.4,1.3,4.1,4.1,3.7c-0.1-8.6-0.3-17.2-0.4-25.7
		C96.1,170.1,94.9,170.2,93.7,170.2z"/>
	<path class="st3" d="M108.5,173.3c-3,5.1-3.8,12.8-0.5,15.3c3.9,2.9,3.5-3.6,3.9-6.5c0.4-2.7,0.1-5.5,0.2-8.3
		C110.9,173.7,109.7,173.5,108.5,173.3z"/>
	<path class="st3" d="M89.8,186.5c0.1-6.2,0.1-12.4,0.2-18.6c-2.9,0.7-0.9,4.7-3.7,5.5c0,3.8,0,7.5,0,11.3c0,1.1-0.1,2.2-0.1,3.3
		c0.6,0.1,1.3,0.2,1.9,0.3c0,0,0.4-0.7,0.4-0.7C88.8,187.1,89.2,186.7,89.8,186.5z"/>
	<path class="st6" d="M108.5,173.3c1.2,0.2,2.4,0.4,3.5,0.6c0-1.8-0.1-3.7-0.1-5.5c-0.5-0.1-1-0.3-1.6-0.4
		C105.4,168.2,108.9,171.4,108.5,173.3z"/>
	<path class="st7" d="M91.3,157.2c-0.2,0.3-0.4,0.6-0.6,0.9c-0.4,1.4-1.2,2.9,0.4,3.9c1.3,0.8,2.1-0.2,2.7-1.3
		c-0.4-0.9-0.9-1.7-1.3-2.6C91.9,157.9,91.6,157.6,91.3,157.2z"/>
	<path class="st9" d="M110.4,167.9c0.5,0.1,1.1,0.3,1.6,0.4c0.7-0.2,1.5-0.3,2.2-0.5c0.2-0.8,0.3-1.5,0.5-2.3
		c-1.7-0.3-3.3-0.5-5-0.8C109.9,165.8,110.1,166.9,110.4,167.9z"/>
	<path class="st6" d="M118.1,157.8c-0.5,0.2-1.3,0.3-1.4,0.7c-0.1,0.3,0.3,0.9,0.6,1.4c0.5-0.2,1.3-0.3,1.4-0.7
		C118.8,158.9,118.4,158.3,118.1,157.8z"/>
	<path class="st3" d="M114.7,165.6c-0.2,0.8-0.3,1.5-0.5,2.3c1.2,0,2.4,0.1,3.5,0.1c0,0-0.2,0.1-0.2,0.1
		C118,165.6,117.7,164,114.7,165.6z"/>
	<path class="st3" d="M123.2,146.1c0,1.6-0.1,3.2-0.1,4.8c0.4,0.3,0.9,0.5,1.5,0.4C124.9,149.3,124.9,147.5,123.2,146.1z"/>
	<path class="st9" d="M102.9,192c0.1,0.8,0.3,1.6,0.4,2.3c0.3-0.2,0.7-0.4,1-0.6C103.9,193.2,103.4,192.6,102.9,192
		C102.9,192,102.9,192,102.9,192z"/>
	<path class="st7" d="M99.3,162.5c-0.6-0.6-1.2-1.3-1.8-1.9c-0.5,0.1-1.1,0.1-1.6,0.2l-0.2-0.1C96.2,162.6,97.9,162.3,99.3,162.5z"
		/>
	<path class="st6" d="M92.4,158.1c0.4,0.9,0.9,1.7,1.3,2.6c0.6,0,1.3,0,1.9,0.1c0,0,0.2,0.1,0.2,0.1c0-1.7,0.1-3.3-1.9-4.1
		C93.4,157.2,92.9,157.7,92.4,158.1z"/>
	<path class="st7" d="M100.9,163.1c-0.6,0-1.2-0.2-1.7-0.6C99.8,162.7,100.3,162.9,100.9,163.1z"/>
	<path class="st11" d="M143.4,254.7c-3.1,0-6.1,0-9.2,0c-0.6,0.6-1.2,1.1-1.8,1.7c3,0.1,6.1,0.2,9.1,0.3
		C142.2,256,142.8,255.3,143.4,254.7z"/>
	<path class="st12" d="M141.5,256.6c-3-0.1-6.1-0.2-9.1-0.3c0,0.6,0,1.2,0.1,1.7c3,0.2,6.1,0.3,9.1,0.5
		C141.6,257.9,141.6,257.2,141.5,256.6z"/>
	<path class="st11" d="M128.3,136.3c-0.5,0-0.9,0.1-1.3,0.3c0.2,1.1,0.9,1.8,2,1.8c0.1-0.4,0.2-0.8,0.2-1.2
		C128.9,136.9,128.6,136.6,128.3,136.3z"/>
	<path class="st13" d="M234,282.5c1.7-0.1,3.5-0.1,5.2-0.2c0-0.7,0-1.4,0-2c-2.8-4.8-2.8-9.6,0-14.4c0.7-4.5-0.7-8.8-1.8-13.1
		c-0.7,0.1-1.3,0.2-2,0.3C234,262.8,233.4,272.6,234,282.5z"/>
	<path class="st11" d="M239.1,265.9c-2.8,4.8-2.8,9.6,0,14.4C239.2,275.5,239.1,270.7,239.1,265.9z"/>
	<path class="st14" d="M83.1,193.6c-3.8,0.7-7.6,1.4-11.4,2.1c0.7,1.2,1.3,2.3,2,3.5c0.5,0.1,1,0.3,1.6,0.5c2-0.4,3.9-1.1,5.9-1
		C86.6,198.8,85.4,196.5,83.1,193.6z"/>
	<path class="st12" d="M75.2,199.6c-0.5-0.2-1-0.3-1.6-0.5c-3.1-0.1-3.5,1.3-2.1,3.7c1.2,0.1,2.5,0.1,3.7,0.2
		C75.3,201.9,75.2,200.8,75.2,199.6z"/>
	<path class="st10" d="M88.2,188.3c-0.6-0.1-1.3-0.2-1.9-0.3c0,0,0.1,0.2,0.1,0.2c-0.2,1-0.7,1.6-1.9,1.4c-1,0.3-1.9,0.8-1.6,2.1
		c2.1,0,4.1,0.1,6.2,0.1c-0.2-0.7-0.4-1.4-0.5-2.1C88.3,189.4,88.2,188.9,88.2,188.3z"/>
	<path class="st13" d="M141.5,256.6c0,0.7,0.1,1.3,0.1,2c3.6,1.4,5.9-2.6,9.3-2.2c0-0.6-0.1-1.2-0.1-1.8c-1.2,0-2.3,0-3.5,0
		c-1.3,0-2.6,0-3.9,0.1C142.8,255.3,142.2,256,141.5,256.6z"/>
	<path class="st11" d="M176.9,254.7c13.4,2.6,26.8,3,40.3-0.1C203.8,254.6,190.3,254.6,176.9,254.7z"/>
	<path class="st1" d="M265.2,335.1c-0.1-1.1-0.2-2.2-0.3-3.2c-1.4,0.3-3.2,0.4-2.7,2.4C262.3,334.8,264.2,334.8,265.2,335.1z"/>
	<path class="st13" d="M228.3,276.5c-0.1-3.6-0.1-7.3-0.2-10.9c-33.3,0.7-66.5,0.3-99.4-5.2c-1.2-0.2-2.4-0.2-3.7-0.1
		c-2.7,0.1-5.7-0.2-6.7,3.4c2.8,0.3,2.3,4.9,7.7,3.7c7.2-1.6,16.7-1,22.8,2.7c5.3,3.2,10,4.8,15.4,4.6c7.1-0.3,13.8,2.1,20.9,2
		C199.5,276.5,213.9,276.5,228.3,276.5z"/>
	<path class="st13" d="M198.5,284c8.5,0.1,17.1,0.2,25.6,0.3c3.3-0.5,7.7-0.2,4.3-5.7c-19.5,0-39.1,0-58.6,0c0,0.6,0,1.2-0.1,1.8
		c7.3,0,14.5-0.1,21.8,0.1C194.3,280.5,198.1,279.2,198.5,284z"/>
	<path class="st13" d="M147.1,276.7c-3.9-3.4-8.4-0.8-12.7,0C138.7,276.7,142.9,276.7,147.1,276.7L147.1,276.7z"/>
	<path class="st13" d="M147.1,276.7c3.3,3.1,7.1,1.4,10.8,0C154.3,276.7,150.7,276.7,147.1,276.7
		C147.1,276.7,147.1,276.7,147.1,276.7z"/>
	<path class="st11" d="M287.2,278.6c0-0.6,0-1.2,0-1.8c-7.6-4.5-15.9,0.5-23.7-1.6c-2-0.5-3.5,0.7-3.6,3.1c-0.1,2.1,0.7,3.6,3,3.8
		c2.4,0.2,5-0.2,6.4,2.6c4.8,0.4,8.8-1.9,13-3.7c-0.8-0.3-2.1-0.5-2.2-1c-0.7-2.1,1.3-1.3,2-1.3
		C283.7,278.4,285.4,278.6,287.2,278.6z"/>
	<path class="st12" d="M251.7,256.5c0.1,8,0.2,16,0.3,24C255.1,272.5,255.7,264.5,251.7,256.5z"/>
	<path class="st13" d="M287.2,278.6c-1.7,0-3.5-0.2-5.2-0.1c-0.7,0.1-2.7-0.8-2,1.3c0.2,0.5,1.5,0.7,2.2,1c1.7-0.3,3.3-0.6,5-0.9
		C287.2,279.6,287.2,279.1,287.2,278.6z"/>
	<path class="st3" d="M99.1,146.4c4.6,0.4,4.3-2.9,4.4-5.9c-0.5-3.1,2-6.3-0.3-9.4c-0.8-2-2.3-2.2-4.2-1.9c0.1,1-0.2,1.7-1.4,1.8
		c0.9,4.6-0.2,8.4-3.9,11.4c1,2.2-0.8,3.6-1.6,5.3c1.1,0,2.1,0,3.2,0C96,145.5,97.5,145.9,99.1,146.4z"/>
	<path class="st3" d="M110.5,129.1c0.2-0.1,0.4-0.2,0.7-0.3C110.9,128.9,110.7,129.1,110.5,129.1
		C110.5,129.2,110.5,129.1,110.5,129.1z"/>
	<path class="st11" d="M126.7,131.1c-0.5,0.7-1.1,1.2-1.4,1.9c-0.1,0.2,0.5,0.8,0.8,1.2c0.6-0.5,1.2-1.1,1.7-1.7
		C127.9,132.4,127.2,131.8,126.7,131.1z"/>
	<path class="st3" d="M119.5,129.3c0,1.3,0.1,2.6,0.1,3.9c1.4-0.8,1.7-2.1,1.6-3.5C120.7,129.4,120.1,129.3,119.5,129.3z"/>
	<path class="st11" d="M129.2,137.2c0.7-0.5,1.3-1.1,0.3-1.8c-0.1-0.1-0.8,0.6-1.2,0.9C128.6,136.6,128.9,136.9,129.2,137.2z"/>
	<path class="st1" d="M92,147.6c0.8-1.7,2.6-3.1,1.6-5.3c-1.2-0.6-2.3-1.2-3.5-1.9c-0.6,2-2.3,1.5-3.7,1.8c0.1,1.8,0.2,3.6,0.3,5.5
		c0.5-0.1,0.9-0.1,1.4,0c1,0.2,2.1,0.4,3.1,0.6C91.4,148,91.7,147.8,92,147.6z"/>
	<path class="st6" d="M95.3,147.7c-1.1,0-2.1,0-3.2,0c-0.3,0.1-0.6,0.4-0.8,0.6c-1.4,1.4-0.6,3.1-0.6,4.7c1.1,1.3,1,2.7,0.6,4.2
		c0.3,0.4,0.7,0.7,1.1,0.9c0.5-0.4,1.1-0.9,1.6-1.3c-0.6-2.4-0.4-4.1,2.8-2.9C97.2,151.6,98,149.2,95.3,147.7z"/>
	<path class="st7" d="M90.7,153c-0.1-1.6-0.8-3.3,0.6-4.7c-1.1-0.2-2.1-0.3-3.1-0.5c0,1.9,0.1,3.7,0.1,5.6
		C89.1,153.2,89.9,153.1,90.7,153z"/>
	<path class="st6" d="M88.2,153.3c0-1.9-0.1-3.7-0.1-5.6c-0.5-0.1-0.9,0-1.4,0C83.2,150.8,86.6,151.8,88.2,153.3z"/>
	<path class="st7" d="M84.5,189.7c1.2,0.2,1.6-0.4,1.9-1.4C85.7,188.8,85.1,189.3,84.5,189.7z"/>
	<path class="st10" d="M97.5,131c1.2,0,1.5-0.7,1.4-1.8c-0.3-0.1-0.7-0.2-1-0.1C97.8,129.7,97.7,130.3,97.5,131z"/>
	<path class="st9" d="M96.8,153.9c-3.2-1.3-3.3,0.5-2.8,2.9c1.9,0.8,1.9,2.4,1.9,4.1c0.5-0.1,1.1-0.1,1.6-0.2c0-1.8,0-3.7-0.1-5.5
		C97.1,154.8,96.9,154.4,96.8,153.9z"/>
	<path class="st15" d="M96.8,153.9c0.1,0.5,0.3,0.9,0.6,1.3c3.2-2.4,1.5-5.8,1.8-8.7c-1.6-0.6-3.2-1-3.9,1.2
		C98,149.2,97.2,151.6,96.8,153.9z"/>
	<path class="st10" d="M104.7,158.8c0.2-0.1,0.5-0.1,0.7-0.3c0.1-0.1,0.1-0.3,0.1-0.5C105.3,158.3,105,158.6,104.7,158.8
		C104.8,158.9,104.7,158.8,104.7,158.8z"/>
	<path class="st7" d="M88.2,188.3c0,0.5,0.1,1,0.4,1.5c0.4-0.6,0.9-1.1,1.3-1.7c-0.5,0-0.9-0.2-1.3-0.6L88.2,188.3z"/>
	<path class="st5" d="M88.5,187.6c0.4,0.3,0.8,0.5,1.3,0.6c0.1-0.5,0.1-1.1,0-1.6C89.2,186.7,88.8,187.1,88.5,187.6z"/>
</g>
</svg>
